<svg xmlns="http://www.w3.org/2000/svg" xmlns:xlink="http://www.w3.org/1999/xlink" viewBox="0 0 500 370"><defs><clipPath id="clip-path"><rect y="-38" width="500" height="408" style="fill:none"/></clipPath><linearGradient id="linear-gradient" x1="130.47" y1="135.93" x2="432.15" y2="135.93" gradientUnits="userSpaceOnUse"><stop offset="0" stop-color="#2d388c"/><stop offset="1" stop-color="#72ccdb"/></linearGradient><linearGradient id="linear-gradient-2" x1="281.47" y1="111.55" x2="281.47" y2="95.74" gradientTransform="matrix(1, 0, 0, -1, 0, 372)" gradientUnits="userSpaceOnUse"><stop offset="0" stop-color="#fff" stop-opacity="0"/><stop offset="0.91" stop-color="#fff"/></linearGradient><linearGradient id="linear-gradient-3" x1="129.47" y1="104.5" x2="152.13" y2="104.5" xlink:href="#linear-gradient"/><linearGradient id="linear-gradient-4" x1="124.88" y1="109.83" x2="156.85" y2="109.83" gradientUnits="userSpaceOnUse"><stop offset="0" stop-color="#653089"/><stop offset="0.15" stop-color="#712f88"/><stop offset="0.41" stop-color="#902b84"/><stop offset="0.75" stop-color="#c2267e"/><stop offset="1" stop-color="#eb2179"/></linearGradient></defs><title>hero</title><g style="isolation:isolate"><g id="Layer_1" data-name="Layer 1"><g style="clip-path:url(#clip-path)"><rect x="386.03" y="321.69" width="80.52" height="6.41" style="fill:#222221"/><path d="M490.61,323.22a44.22,44.22,0,0,0-5.45,9.57A63.68,63.68,0,0,0,469,325.22c-10.34-3.09-21.27-3-31.93-2.26-3.07.22-31.13.24-31.13,0V316.5h31.2c4.75,0,9.47-.63,14.19-1.1,4.4-.45,7.9.23,12.2.47,10.53.58,21.09,3.81,31.76,2.05A44.55,44.55,0,0,0,490.61,323.22Z" style="fill:#abb0b0"/><path d="M273.9,313.89a35.85,35.85,0,0,0,11.25-44.13c-3.09-6.56-8.09-12.16-10.63-19-4-10.6-1.41-22.39,1.18-33.4" style="fill:none;stroke:#000;stroke-miterlimit:10;stroke-width:6px"/><rect x="231.3" y="310.44" width="94.64" height="7.48" rx="3.09"/><path d="M192,106.37H169.45a2.26,2.26,0,1,0,0,4.52H192a2.26,2.26,0,0,0,0-4.52Z" style="fill:#dfdef8;fill-opacity:0.800000011920929"/><path d="M280.12,97.33H230.43a2.26,2.26,0,0,0,0,4.52h49.69a2.26,2.26,0,0,0,0-4.52Z" style="fill:#dfdef8"/><path d="M249,106.37H230.43a2.26,2.26,0,0,0,0,4.52H249a2.26,2.26,0,1,0,0-4.52Z" style="fill:#dfdef8;fill-opacity:0.800000011920929"/><path d="M280.12,106.37H257.53a2.26,2.26,0,0,0,0,4.52h22.59a2.26,2.26,0,0,0,0-4.52Z" style="fill:#dfdef8;fill-opacity:0.800000011920929"/><path d="M266.57,115.41H230.43a2.26,2.26,0,0,0,0,4.52h36.14a2.26,2.26,0,0,0,0-4.52Z" style="fill:#dfdef8;fill-opacity:0.6000000238418579"/><path d="M257.53,124.44h-27.1a2.26,2.26,0,0,0,0,4.52h27.1a2.26,2.26,0,1,0,0-4.52Z" style="fill:#dfdef8;fill-opacity:0.4000000059604645"/><path d="M368.21,97.33H318.52a2.26,2.26,0,1,0,0,4.52h49.69a2.26,2.26,0,0,0,0-4.52Z" style="fill:#dfdef8"/><path d="M337,106.37H318.52a2.26,2.26,0,1,0,0,4.52H337a2.26,2.26,0,0,0,0-4.52Z" style="fill:#dfdef8;fill-opacity:0.800000011920929"/><path d="M368.21,106.37H345.62a2.26,2.26,0,1,0,0,4.52h22.59a2.26,2.26,0,0,0,0-4.52Z" style="fill:#dfdef8;fill-opacity:0.800000011920929"/><path d="M354.65,115.41H318.52a2.26,2.26,0,1,0,0,4.52h36.13a2.26,2.26,0,1,0,0-4.52Z" style="fill:#dfdef8;fill-opacity:0.6000000238418579"/><path d="M345.62,124.44h-27.1a2.26,2.26,0,1,0,0,4.52h27.1a2.26,2.26,0,0,0,0-4.52Z" style="fill:#dfdef8;fill-opacity:0.4000000059604645"/><path d="M376.79,154.26H158.15v75H376.79Z" style="fill:none;stroke:#d5d3e8;stroke-width:1.8434799909591675px;stroke-dasharray:3.690000057220459,3.690000057220459"/><path d="M207.39,159.69H166.74a2.26,2.26,0,0,0,0,4.52h40.65a2.26,2.26,0,1,0,0-4.52Z" style="fill:#dfdef8;fill-opacity:0.6000000238418579"/><path d="M294.58,159.69H253.92a2.26,2.26,0,1,0,0,4.52h40.66a2.26,2.26,0,0,0,0-4.52Z" style="fill:#dfdef8;fill-opacity:0.6000000238418579"/><path d="M338.84,159.69H325.29a2.26,2.26,0,0,0,0,4.52h13.55a2.26,2.26,0,1,0,0-4.52Z" style="fill:#dfdef8;fill-opacity:0.6000000238418579"/><path d="M366,159.69h-9a2.26,2.26,0,0,0,0,4.52h9a2.26,2.26,0,0,0,0-4.52Z" style="fill:#dfdef8;fill-opacity:0.6000000238418579"/><path d="M376.79,154.26H245.34v75H376.79Z" style="fill:none;stroke:#d5d3e8;stroke-width:1.8434799909591675px;stroke-dasharray:3.690000057220459,3.690000057220459"/><path d="M376.79,154.26H316.71v75h60.08Z" style="fill:none;stroke:#d5d3e8;stroke-width:1.8434799909591675px;stroke-dasharray:3.690000057220459,3.690000057220459"/><path d="M376.79,154.26H348.33v75h28.46Z" style="fill:none;stroke:#d5d3e8;stroke-width:1.8434799909591675px;stroke-dasharray:3.690000057220459,3.690000057220459"/><path d="M424.1,95.53H138.55c-4.46,0-8.08,3-8.08,6.77V269.48c0,3.75,3.62,6.78,8.08,6.78H424.1c4.46,0,8.08-3,8.08-6.78V102.3C432.18,98.56,428.56,95.53,424.1,95.53Z" style="fill:#f5f4f8"/><path d="M432.15,117.86H130.47V154H432.15Z" style="fill:#754ffe"/><path d="M432.15,117.86H130.47V154H432.15Z" style="fill:url(#linear-gradient)"/><path d="M168.54,149.29a4.52,4.52,0,0,1,4.52-4.51H389.89a4.52,4.52,0,0,1,4.52,4.51v127H168.54Z" style="fill:#fff"/><path d="M385.37,154.26H247.6v77.52H385.37Z" style="fill:#51a0c2"/><path d="M385.37,154.26H316.71v77.52h68.66Z" style="fill:none"/><path d="M324.39,185.89H308.58a2.26,2.26,0,0,0-2.26,2.26v9.56a2.26,2.26,0,0,0,2.26,2.26h15.81a2.26,2.26,0,0,0,2.26-2.26v-9.56A2.26,2.26,0,0,0,324.39,185.89Z" style="fill-opacity:0.30000001192092896"/><path d="M320.36,192.48l-5.16-3a.7.7,0,0,0-1.06.61v6.1a.7.7,0,0,0,1.06.6l5.16-3.05A.7.7,0,0,0,320.36,192.48Z" style="fill:#fff"/><path d="M247.6,225.65H385.37v6.27H247.6Z" style="fill-opacity:0.30000001192092896"/><path d="M258.27,229.74a.58.58,0,0,1-.51-.25,1.25,1.25,0,0,1-.18-.73,1.26,1.26,0,0,1,.18-.74.58.58,0,0,1,.51-.25.56.56,0,0,1,.51.25,1.25,1.25,0,0,1,.18.73,1.26,1.26,0,0,1-.18.74A.56.56,0,0,1,258.27,229.74Zm0-.22a.33.33,0,0,0,.31-.19,1.34,1.34,0,0,0,.1-.58,1.19,1.19,0,0,0-.1-.57.32.32,0,0,0-.31-.18.33.33,0,0,0-.31.18,1.35,1.35,0,0,0-.09.57,1.37,1.37,0,0,0,.09.58A.33.33,0,0,0,258.27,229.52Zm1.3-1.14v.33h-.32v-.33Zm0,1v.32h-.32v-.32Zm1,.34a.56.56,0,0,1-.51-.25,1.25,1.25,0,0,1-.18-.73A1.26,1.26,0,0,1,260,228a.56.56,0,0,1,.51-.25.58.58,0,0,1,.51.25,1.25,1.25,0,0,1,.18.73,1.26,1.26,0,0,1-.18.74A.58.58,0,0,1,260.55,229.74Zm0-.22a.3.3,0,0,0,.3-.19,1.2,1.2,0,0,0,.1-.58,1.35,1.35,0,0,0-.09-.57.36.36,0,0,0-.62,0,1.19,1.19,0,0,0-.1.57,1.2,1.2,0,0,0,.1.58A.33.33,0,0,0,260.55,229.52Zm1.62.22a.58.58,0,0,1-.51-.25,1.25,1.25,0,0,1-.18-.73,1.26,1.26,0,0,1,.18-.74.58.58,0,0,1,.51-.25.56.56,0,0,1,.51.25,1.25,1.25,0,0,1,.18.73,1.26,1.26,0,0,1-.18.74A.56.56,0,0,1,262.17,229.74Zm0-.22a.33.33,0,0,0,.31-.19,1.2,1.2,0,0,0,.1-.58,1.19,1.19,0,0,0-.1-.57.32.32,0,0,0-.31-.18.33.33,0,0,0-.31.18,1.35,1.35,0,0,0-.09.57,1.37,1.37,0,0,0,.09.58A.33.33,0,0,0,262.17,229.52Z" style="fill:#fff"/><path d="M253.4,228.57l-1.85-1.09a.25.25,0,0,0-.38.22v2.18a.25.25,0,0,0,.38.21L253.4,229A.25.25,0,0,0,253.4,228.57Z" style="fill:#fff"/><path d="M265.31,228.83H367.48" style="fill:none;stroke:#fff;stroke-opacity:0.699999988079071;stroke-width:0.9217389822006226px"/><path d="M372.25,228v1.56a.11.11,0,0,1-.19.08l-.41-.41h-.48a.11.11,0,0,1-.11-.11v-.67a.11.11,0,0,1,.11-.12h.48l.41-.41A.11.11,0,0,1,372.25,228Zm.85-.36a.15.15,0,0,0-.21,0,.16.16,0,0,0,.05.21,1,1,0,0,1,.05,1.75.16.16,0,0,0,0,.21.14.14,0,0,0,.2,0,1.33,1.33,0,0,0-.06-2.24Zm.2,1.14a.89.89,0,0,0-.43-.76.15.15,0,0,0-.21.05.15.15,0,0,0,0,.2.59.59,0,0,1,0,1,.15.15,0,0,0,.08.27l.09,0A.92.92,0,0,0,373.3,228.79Zm-.45,0a.43.43,0,0,0-.22-.38.15.15,0,0,0-.15.25.17.17,0,0,1,.07.13.19.19,0,0,1,0,.07.1.1,0,0,1,0,0,.15.15,0,0,0,0,.21.15.15,0,0,0,.21,0A.44.44,0,0,0,372.85,228.79Z" style="fill:#fff"/><path d="M379.11,228.33v-.74a.15.15,0,0,1,.14-.15H380a.08.08,0,0,1,.07.08v.24a.07.07,0,0,1-.07.07h-.51v.5a.07.07,0,0,1-.07.07h-.24A.07.07,0,0,1,379.11,228.33Zm1.73-.81v.24a.07.07,0,0,0,.07.07h.5v.5a.07.07,0,0,0,.07.07h.24a.07.07,0,0,0,.07-.07v-.74a.15.15,0,0,0-.14-.15h-.74A.08.08,0,0,0,380.84,227.52Zm.88,1.65h-.24a.07.07,0,0,0-.07.07v.51h-.5a.07.07,0,0,0-.07.07v.24a.07.07,0,0,0,.07.07h.74a.15.15,0,0,0,.14-.15v-.74A.07.07,0,0,0,381.72,229.17Zm-1.65.89v-.24a.07.07,0,0,0-.07-.07h-.51v-.51a.07.07,0,0,0-.07-.07h-.24a.07.07,0,0,0-.07.07V230a.15.15,0,0,0,.14.15H380A.07.07,0,0,0,380.07,230.06Z" style="fill:#fff"/><path d="M266,229.59a.72.72,0,1,0-.72-.71A.71.71,0,0,0,266,229.59Z" style="fill:#fff"/><path d="M369.64,244.69a1.25,1.25,0,0,0,1,.44c.62,0,1-.33,1-.79a.69.69,0,0,0-.63-.66.66.66,0,0,0,.59-.62c0-.45-.4-.73-1-.73a1.25,1.25,0,0,0-1,.43l.24.29a1,1,0,0,1,.7-.3c.31,0,.55.13.55.39s-.24.35-.55.35h-.32v.43h.32c.38,0,.6.12.6.38s-.21.42-.57.42a1,1,0,0,1-.75-.33Zm2.45-1.31a.29.29,0,1,0,.29-.29A.29.29,0,0,0,372.09,243.38Zm0,1.46a.29.29,0,1,0,.57,0,.29.29,0,0,0-.57,0Zm1,.24h2v-.42h-1.2c.73-.54,1.19-1,1.19-1.49a.89.89,0,0,0-1-.84,1.31,1.31,0,0,0-1,.44l.28.31a.92.92,0,0,1,.73-.33.43.43,0,0,1,.49.42c0,.39-.41.74-1.46,1.54Zm3.62,0h.48v-.61h.36v-.42h-.36v-1.68h-.66l-1.11,1.72v.38h1.29Zm0-2.28v1.25h-.82Zm4.68,2.28h.43v-1.42a.52.52,0,0,0-.57-.59.81.81,0,0,0-.66.36.53.53,0,0,0-.54-.36.85.85,0,0,0-.64.32v-.27H379v2h.43v-1.37a.6.6,0,0,1,.45-.26.31.31,0,0,1,.33.35v1.28h.42v-1.37a.6.6,0,0,1,.46-.26c.23,0,.32.14.32.35Zm1.19-2.29a.26.26,0,0,0,.27-.26.27.27,0,1,0-.53,0A.26.26,0,0,0,382.57,242.79Zm-.21,2.29h.43v-2h-.43Zm2.31,0h.42V243.7a.57.57,0,0,0-.63-.63.91.91,0,0,0-.69.32v-.27h-.43v2h.43v-1.37a.65.65,0,0,1,.5-.26.35.35,0,0,1,.4.4Z" style="fill:#18113c"/><path d="M394.41,260.45H168.54v15.81H394.41Z" style="fill:url(#linear-gradient-2)"/><path d="M362.56,130.32H333.2a1.13,1.13,0,1,0,0,2.26h29.36a1.13,1.13,0,1,0,0-2.26Z" style="fill:#fff;fill-opacity:0.30000001192092896"/><path d="M340,130.32H333.2a1.13,1.13,0,1,0,0,2.26H340a1.13,1.13,0,1,0,0-2.26Z" style="fill:#fff"/><path d="M221.4,125.71H170.8a2.27,2.27,0,0,0-2.26,2.26v6.78A2.26,2.26,0,0,0,170.8,137h50.6a2.26,2.26,0,0,0,2.25-2.26V128A2.26,2.26,0,0,0,221.4,125.71Z" style="fill:#fff"/><path d="M173.22,130.38h4.2a.16.16,0,0,0,.16-.16v-.64a.17.17,0,0,0-.16-.17h-4.2a.17.17,0,0,0-.16.17v.64A.16.16,0,0,0,173.22,130.38Zm4.84.81h-4.19a.16.16,0,0,0-.16.16V132a.16.16,0,0,0,.16.16h4.19a.16.16,0,0,0,.16-.16v-.65A.16.16,0,0,0,178.06,131.19Zm-.64,1.77h-4.2a.17.17,0,0,0-.16.17v.64a.16.16,0,0,0,.16.16h4.2a.16.16,0,0,0,.16-.16v-.64A.17.17,0,0,0,177.42,133Z" style="fill:#beb9cd"/><path d="M130.65,102.3c0-3.74,3.62-6.77,8.08-6.77H424.25c4.46,0,8.08,3,8.08,6.77v15.82H130.65Z" style="fill:#fff"/><path d="M380.53,100.05H317.29A2.26,2.26,0,0,0,315,102.3v9a2.26,2.26,0,0,0,2.26,2.26h63.24a2.26,2.26,0,0,0,2.26-2.26v-9A2.26,2.26,0,0,0,380.53,100.05Z" style="fill:#ecebf1"/><path d="M324.89,108.8l-1.06-1.06a.27.27,0,0,0-.18-.07h-.17a2.21,2.21,0,1,0-.38.38v.17a.23.23,0,0,0,.08.18l1.05,1.06a.25.25,0,0,0,.36,0l.3-.3A.25.25,0,0,0,324.89,108.8Zm-3.14-1.13a1.36,1.36,0,1,1,1.35-1.36A1.36,1.36,0,0,1,321.75,107.67Z" style="fill:#9b99bc"/><path d="M331.18,109.13a2.09,2.09,0,0,1-1.44-.49l.17-.34a1.88,1.88,0,0,0,.59.34,2.08,2.08,0,0,0,.69.11,1.24,1.24,0,0,0,.72-.18.61.61,0,0,0,.25-.52.41.41,0,0,0-.12-.31.8.8,0,0,0-.32-.2,4.3,4.3,0,0,0-.53-.14,4.65,4.65,0,0,1-.73-.22,1.13,1.13,0,0,1-.47-.32.86.86,0,0,1-.18-.56,1,1,0,0,1,.18-.59,1.09,1.09,0,0,1,.48-.39,2,2,0,0,1,.75-.14,2.36,2.36,0,0,1,.75.12,1.65,1.65,0,0,1,.58.37l-.17.34a1.75,1.75,0,0,0-.56-.34,1.46,1.46,0,0,0-.6-.11,1.15,1.15,0,0,0-.71.19.62.62,0,0,0-.25.53.5.5,0,0,0,.22.44,2.16,2.16,0,0,0,.68.25c.34.08.6.16.78.22a1.14,1.14,0,0,1,.48.31.73.73,0,0,1,.19.54,1,1,0,0,1-.17.57,1.21,1.21,0,0,1-.5.38A2,2,0,0,1,331.18,109.13Zm4.39-1.43h-2a1.26,1.26,0,0,0,.24.79.87.87,0,0,0,.69.27,1.4,1.4,0,0,0,.88-.32l.15.32a1.29,1.29,0,0,1-.46.26,1.63,1.63,0,0,1-.57.1,1.39,1.39,0,0,1-1-.37,1.46,1.46,0,0,1-.36-1,1.61,1.61,0,0,1,.16-.74,1.23,1.23,0,0,1,1.12-.68,1.07,1.07,0,0,1,.86.36,1.45,1.45,0,0,1,.31,1Zm-1.16-1.07a.78.78,0,0,0-.56.21,1,1,0,0,0-.27.58h1.59a.94.94,0,0,0-.23-.59A.69.69,0,0,0,334.41,106.63Zm4.22-.28v2.73h-.43v-.49a.85.85,0,0,1-.36.39,1.13,1.13,0,0,1-.56.14,1.22,1.22,0,0,1-.64-.17,1.29,1.29,0,0,1-.43-.49,1.88,1.88,0,0,1-.14-.74,1.76,1.76,0,0,1,.15-.75,1.21,1.21,0,0,1,.42-.5,1.17,1.17,0,0,1,.64-.18,1.13,1.13,0,0,1,.56.14.88.88,0,0,1,.36.4v-.48Zm-1.27,2.41a.74.74,0,0,0,.62-.27,1.24,1.24,0,0,0,.22-.79,1.18,1.18,0,0,0-.22-.77.84.84,0,0,0-1.24,0,1.42,1.42,0,0,0,0,1.55A.74.74,0,0,0,337.36,108.76Zm3.39-2.47a1,1,0,0,1,.25,0v.4a.85.85,0,0,0-.29,0,.7.7,0,0,0-.59.25.92.92,0,0,0-.19.6v1.55h-.44v-2a6.08,6.08,0,0,0,0-.77h.42l0,.51a.78.78,0,0,1,.33-.42A.91.91,0,0,1,340.75,106.29Zm1.79,2.83a1.42,1.42,0,0,1-.7-.17,1.25,1.25,0,0,1-.45-.49,1.58,1.58,0,0,1-.16-.74,1.62,1.62,0,0,1,.16-.75,1.23,1.23,0,0,1,.46-.5,1.48,1.48,0,0,1,1.24-.08,1.15,1.15,0,0,1,.43.26l-.15.32a1.57,1.57,0,0,0-.4-.24,1.07,1.07,0,0,0-.39-.07.81.81,0,0,0-.66.28,1.14,1.14,0,0,0-.23.78,1.16,1.16,0,0,0,.23.77.84.84,0,0,0,.66.27,1.09,1.09,0,0,0,.39-.08,1.57,1.57,0,0,0,.4-.24l.15.33a1.35,1.35,0,0,1-.44.26A1.7,1.7,0,0,1,342.54,109.12Zm2.9-2.83c.65,0,1,.36,1,1.08v1.71H346v-1.69a.82.82,0,0,0-.15-.55.59.59,0,0,0-.48-.18.85.85,0,0,0-.61.23.88.88,0,0,0-.22.63v1.56h-.44v-4h.44v1.71a.88.88,0,0,1,.36-.38A1.16,1.16,0,0,1,345.44,106.29Zm2.29,2.23v.56h-.56v-.56Zm1.25,0v.56h-.55v-.56Zm1.26,0v.56h-.56v-.56Z" style="fill:#a8a3b9"/><path d="M383.11,100.05h-9a2.26,2.26,0,0,0-2.26,2.25v9a2.26,2.26,0,0,0,2.26,2.26h9a2.26,2.26,0,0,0,2.26-2.26v-9A2.26,2.26,0,0,0,383.11,100.05Z" style="fill:none"/><path d="M416.49,108.14l-2-2a.25.25,0,0,1,0-.36l.23-.23a.24.24,0,0,1,.35,0l1.61,1.59,1.6-1.59a.24.24,0,0,1,.35,0l.23.23a.25.25,0,0,1,0,.36l-2,2A.26.26,0,0,1,416.49,108.14Z" style="fill:#9b99bc"/><rect x="177.88" y="155.56" width="50.26" height="5.24" rx="1.05" style="fill:#ecebf1"/><rect x="257.46" y="164.98" width="46.6" height="3.14" rx="1.05" style="fill:#89cae6"/><rect x="257.46" y="171.26" width="26.7" height="3.14" rx="1.05" style="fill:#89cae6"/><rect x="257.46" y="177.55" width="19.89" height="3.14" rx="1.05" style="fill:#89cae6"/><rect x="247.51" y="252.41" width="135.6" height="4.19" rx="1.05" style="fill:#ecebf1"/><rect x="247.51" y="259.74" width="135.6" height="4.19" rx="1.05" style="fill:#ecebf1"/><rect x="247.51" y="267.07" width="58.64" height="4.19" rx="1.05" style="fill:#ecebf1"/><rect x="247.51" y="240.37" width="88.48" height="5.24" rx="1.05" style="fill:#ecebf1"/><path d="M184.13,187.22a3.39,3.39,0,1,1-3.39-3.39A3.39,3.39,0,0,1,184.13,187.22ZM180.35,189l2.51-2.51a.21.21,0,0,0,0-.31l-.31-.31a.2.2,0,0,0-.3,0l-2.05,2.05-1-1a.23.23,0,0,0-.31,0l-.31.31a.21.21,0,0,0,0,.31L180,189A.21.21,0,0,0,180.35,189Z" style="fill:#593cc1"/><rect x="188.35" y="184.88" width="37.7" height="4.71" rx="1.05" style="fill:#dbd8e9"/><path d="M180.74,199a3.39,3.39,0,1,0,3.39,3.39A3.39,3.39,0,0,0,180.74,199Zm1.58,3.72-2.4,1.38a.33.33,0,0,1-.49-.29V201a.33.33,0,0,1,.49-.29l2.4,1.46A.33.33,0,0,1,182.32,202.7Z" style="fill:#ecebf1"/><rect x="188.35" y="200.03" width="36.65" height="4.71" rx="1.05" style="fill:#ecebf1"/><path d="M180.74,214.14a3.39,3.39,0,1,0,3.39,3.39A3.39,3.39,0,0,0,180.74,214.14Zm1.58,3.71-2.4,1.38a.33.33,0,0,1-.49-.28V216.1a.33.33,0,0,1,.49-.28l2.4,1.46A.32.32,0,0,1,182.32,217.85Z" style="fill:#ecebf1"/><rect x="188.35" y="215.14" width="32.46" height="4.71" rx="1.05" style="fill:#ecebf1"/><path d="M180.74,229.29a3.39,3.39,0,1,0,3.39,3.39A3.39,3.39,0,0,0,180.74,229.29Zm1.58,3.72-2.4,1.38a.33.33,0,0,1-.49-.29v-2.84a.33.33,0,0,1,.49-.29l2.4,1.46A.33.33,0,0,1,182.32,233Z" style="fill:#ecebf1"/><rect x="188.35" y="230.34" width="32.46" height="4.71" rx="1.05" style="fill:#ecebf1"/><path d="M180.74,244.44a3.39,3.39,0,1,0,3.39,3.39A3.39,3.39,0,0,0,180.74,244.44Zm1.58,3.72-2.4,1.38a.33.33,0,0,1-.49-.29v-2.84a.33.33,0,0,1,.49-.28l2.4,1.46A.32.32,0,0,1,182.32,248.16Z" style="fill:#ecebf1"/><rect x="188.35" y="245.49" width="32.46" height="4.71" rx="1.05" style="fill:#ecebf1"/><path d="M180.74,259.22a3.39,3.39,0,1,0,3.39,3.39A3.39,3.39,0,0,0,180.74,259.22Zm1.58,3.72-2.4,1.38a.33.33,0,0,1-.49-.29v-2.84a.33.33,0,0,1,.49-.29l2.4,1.46A.33.33,0,0,1,182.32,262.94Z" style="fill:#ecebf1"/><rect x="188.35" y="260.27" width="39.79" height="4.71" rx="1.05" style="fill:#ecebf1"/><rect x="177.88" y="163.93" width="25.13" height="5.24" rx="1.05" style="fill:#ecebf1"/><rect x="367.93" y="129.9" width="7.33" height="3.14" rx="1.05" style="fill:#aa9ed5"/><rect x="376.83" y="129.9" width="17.28" height="3.14" rx="1.05" style="fill:#aa9ed5"/><rect x="181.54" y="129.9" width="36.65" height="3.14" rx="1.05" style="fill:#dbd8e9"/><text transform="translate(156 108.57)" style="font-size:6.56827449798584px;fill:#484849;font-family:Lato-Black, Lato;font-weight:800">WI<tspan x="9.14" y="0" style="letter-spacing:-0.09998642435717153em">Y</tspan><tspan x="12.93" y="0" style="letter-spacing:-0.07998913948573723em">AT</tspan><tspan x="20.65" y="0">A</tspan></text><text transform="translate(163.63 111.44)" style="font-size:2.50909686088562px;fill:#484849;font-family:Lato-Black, Lato;font-weight:800">acade<tspan x="6.74" y="0" style="letter-spacing:-0.01984964720828703em">m</tspan><tspan x="8.85" y="0" style="letter-spacing:-0.00019460438439497087em">y</tspan></text><path d="M144.11,108.38a13.73,13.73,0,0,0,.23-1.62c.14-1.32.27-2.59,1.32-2.79s1.57,1.22,2,2.69c.21.76.3,1.2.44,1.27.26-.17.58-1,1-2.55.07-.22.13-.45.19-.68l-6.81-3.8c-1-.57-1.83-.29-1.83.92v1.32c.49.7,1,1.49,1.49,2.27C143.15,107,144.08,108.39,144.11,108.38Z" style="fill-rule:evenodd;fill:url(#linear-gradient-3)"/><path d="M151.82,106.11l-1.1-.61-.09.33c-.63,2.16-1.63,3.83-2.37,4l-.13,0c-1.5.23-1.81-2.17-2.15-3.19-.25,1.07-.1,3-1.51,3.32-1.11.24-2.35-1.7-3.67-3.77l-.15-.25v3.13h0V113c0,1.2.81,1.48,1.83.92l9.34-5.22a1.31,1.31,0,0,0,0-2.56Z" style="fill-rule:evenodd;fill:url(#linear-gradient-4)"/><rect x="130.47" y="95.27" width="301.86" height="181.24" rx="7.63" style="fill:none;stroke:#050504;stroke-miterlimit:10"/><path d="M67.75,219.39c-.64-9.46,4-16.91,7.74-25.15,2.05-4.49,2.69-9.61,5.34-13.76,5.55,16.5,5.4,36.9.74,53.6-1.39,5-3.84,9.57-5.41,14.48.79-2.48-2.37-7.86-3.21-10C70.41,232.11,68.18,225.78,67.75,219.39Z" style="fill:#6ff685"/><path d="M59.43,253.61c-7.11-6.26-13.54-13.62-17.79-22.15A56.13,56.13,0,0,1,37,218.26a54.28,54.28,0,0,1-1-6.94c-.1-1.17.48-5.73-.16-6.5,4.66,5.63,11.51,8.35,16.46,13.44a72.1,72.1,0,0,1,12.66,18.28,42.59,42.59,0,0,1,3.79,12c.3,1.94,1.58,9.06-.26,10.5-.57.44-2.24-.54-2.74-.79A31.07,31.07,0,0,1,59.43,253.61Z" style="fill:#fff"/><path d="M77.48,302.85a136.86,136.86,0,0,0-30.51-81" style="fill:none;stroke:#000;stroke-miterlimit:10;stroke-width:0.5px"/><path d="M78.28,296.27q-1.73-41.07-3.44-82.16" style="fill:none;stroke:#000;stroke-miterlimit:10;stroke-width:0.5px"/><path d="M66.42,262.51a24.79,24.79,0,0,0-12.79-5.95,48.34,48.34,0,0,0-14.26,0,92.66,92.66,0,0,0-16.61,3.68c2.78,4.88,7.71,8.25,13,10.22a38.93,38.93,0,0,0,13.6,2.43c6.82,0,13.58-1.64,20.4-1.43,1.18,0,2.21-.07,3.12.77A22.64,22.64,0,0,0,66.42,262.51Z" style="fill:#6ff685"/><path d="M72.54,271.83a25,25,0,0,0-15.17-7.4c-5.87-.8-11.83-.28-17.73.24" style="fill:none;stroke:#000;stroke-miterlimit:10;stroke-width:0.5px"/><path d="M81.31,269.4a43.32,43.32,0,0,1,4.74-12.5c4.69-8.2,12.12-15,14.41-24.19,1.72,10.13,3.37,20.93-.71,30.36-4.75,11-15.29,17.9-19.61,29.05.76-2-.22-6.18,0-8.43.22-2.77.18-5.61.38-8.43A46.17,46.17,0,0,1,81.31,269.4Z" style="fill:#6ff685"/><path d="M80.12,298.4c-1-7.87.91-15.93,4.38-23.07,2.72-5.61,6.4-10.77,8.47-16.65" style="fill:none;stroke:#000;stroke-miterlimit:10;stroke-width:0.5px"/><path d="M44.84,286.82a31,31,0,0,0-.42,5c0,13.17,8,28.26,19.45,35.27a4.49,4.49,0,0,0,2.32.63h22a4.49,4.49,0,0,0,2.32-.63c11.45-7,19.45-22.1,19.45-35.27a31,31,0,0,0-.42-5Z" style="fill:#abb0b0"/><line x1="44.98" y1="292.52" x2="109.07" y2="292.52" style="fill:none;stroke:#000;stroke-miterlimit:10;stroke-width:0.5px"/><line x1="47.51" y1="305.74" x2="106.54" y2="305.74" style="fill:none;stroke:#000;stroke-miterlimit:10;stroke-width:0.5px"/><line x1="58.09" y1="322.41" x2="95.97" y2="322.41" style="fill:none;stroke:#000;stroke-miterlimit:10;stroke-width:0.5px"/><polyline points="49.72 302.27 55.84 296.6 61.95 302.1 68.32 296.27 75.46 302.1 82.34 296.1 89.48 302.1 95.85 295.93 102.47 302.1" style="fill:none;stroke:#000;stroke-miterlimit:10;stroke-width:0.5px"/><polyline points="55.84 312.42 61.95 317.93 68.32 312.09 75.46 317.93 82.34 311.92 89.48 317.93 95.85 311.76" style="fill:none;stroke:#000;stroke-miterlimit:10;stroke-width:0.5px"/><rect x="25.23" y="328.13" width="449.55" height="11.08" style="fill:#eb2179"/><rect x="50.97" y="331.85" width="6.59" height="119.98" style="fill:#eb2179"/><rect x="441.8" y="331.85" width="6.59" height="119.98" style="fill:#eb2179"/><path d="M373.11,288.47c-1.14-4.89-2.81-10.58-2.16-15.11.47-3.24,2.39-6.24,2.95-9.64,1.34-8.14,1.13-16.79,1.28-25,.32-17.16-.2-34.34.27-51.5.11-4.08,0-8.19.68-12.21,1.1-6.33,4.18-12.13,8-17.26s8.11-4.89,13.2-7.78c3-1.69,4.69-.07,3.51,2.78-.64,1.53-2.81,3.48-4.19,4.38a17.52,17.52,0,0,0-2.4,1.54c-2.5,2.28-3.67,10.18,1.67,8.11,2.56-1,5-5.87,5.3-8.46.47-3.95,1.75-8.9,5.69-9.49,6.91-1,5.88,19,5.08,22-2,7.55-9.15,12.45-11.3,19.34a12.72,12.72,0,0,0-.15,5.11c3.36,31.79,25.48,102,15.11,125.15-3.86,8.62-3.89-9-11.7-3.72-7,4.76-17.15,1.49-22.63-4.95-4.63-5.44-6.37-13.37-7.55-20.24C373.56,290.51,373.35,289.51,373.11,288.47Z" style="fill:#fff;stroke:#222221;stroke-miterlimit:10"/><path d="M296.92,157.22c-.05-2.24-.06-4.46-.13-6.64l-41.41-.2c.21,12.81-.44,24.69-1.22,35.78-.37,5.38-.72,9.16-2.74,13.69,8.54,3.55,14.59,8,23.85,9,8.36.86,19.14,1.05,26.57-2.9C295.74,189.86,297.27,173.39,296.92,157.22Z" style="fill:#fff;stroke:#222221;stroke-miterlimit:10"/><path d="M352.17,407c4.44-39,2.83-77.23,3.08-116.53a88.63,88.63,0,0,1,.88-14.48c.86-5,2.56-9.77,3.5-14.72,4.63-24.5-9-54.9-31.67-66.21-19.47-9.7-41.76-12.35-63.5-11.88-18.76.4-60.13,10.32-71.5,25.23-14.91,19.55-7,47.89,8.35,64.72-4.44,25.25-8.62,51.57-8.92,77.25-.21,18.13,4.47,36.07,5.45,54.18Z" style="fill:#653089"/><path d="M248.59,127.8c-.83-3.78-5.87-7.89-10.58-5.15a6.16,6.16,0,0,0-2.75,6.63c.48,2.43,2,4.61,3.55,6.72l2.06,2.86a4.11,4.11,0,0,0,2.48,2C249.15,141.83,249.11,130.16,248.59,127.8Z" style="fill:#fff;stroke:#222221;stroke-miterlimit:10"/><path d="M306.53,139.72a4.35,4.35,0,0,1-3.53,1.72,3.69,3.69,0,0,1-2-1c-4.66-4.17,2-18.83,9.3-18.79a3.48,3.48,0,0,1,3,1.69,4.32,4.32,0,0,1,.14,2.73,28.18,28.18,0,0,1-6.79,13.44Z" style="fill:#fff;stroke:#222221;stroke-miterlimit:10"/><path d="M244.67,185.1A115.05,115.05,0,0,0,192,207.9c-15.3,11.86-28,26.73-39.93,42q-16.32,20.82-31.08,42.8c-3.19,4.76-6.36,9.64-8.07,15.11-6.5,20.9,12.9,25,28.86,24.65a60.54,60.54,0,0,0,36.8-13.34,120.23,120.23,0,0,0,11.7-11.54c6.76-7.32,13.54-13.85,18.07-22.69,3-6,6.33-11.8,9.58-17.65,2-3.58,13.38-28.49,18.73-27.38,2.75.57,5.59,1,8.47,1.41,0-7.18.46-14.35.8-21.52.18-3.83.36-7.67.39-11.51,0-2.62-1.34-6.36-.7-8.76A38,38,0,0,1,253.9,184C250.79,184.25,247.72,184.62,244.67,185.1Z" style="fill:#653089"/><path d="M291.57,186c8.74,1.19,9.21,1.42,17.91,2.43,29.79,3.48,57.69,35,75.27,56.65,13.79,17,40,47.66,33,71.6-4.34,14.94-23.17,18.72-36.62,16.33-19.33-3.43-32.87-18.84-44.12-33.74-4-5.26-35.36-59.76-37-59.42-2.75.57-5.59,1-8.48,1.41Z" style="fill:#653089"/><path d="M257.47,159.36a7.56,7.56,0,0,1-3.24-.93,15.76,15.76,0,0,1-5.31-5.82c-8.21-13.56-12-30.84-8.79-46.44,1.53-7.53,5.25-15.19,11.39-20s14.31-5.57,21.67-6.1a7.79,7.79,0,0,0,3.89-1.93,6.49,6.49,0,0,1,4-1.69c1.47.06,2.92,1.59,2.33,2.94a10.34,10.34,0,0,0,4.28-2.77,66.6,66.6,0,0,1,17.72,24.64A54.54,54.54,0,0,1,308,131.56c-1.45,7.63-4.64,14.95-7.37,22.13-2.22,5.82-6.34,6.81-11.9,4.87-5.95-2.07-12.34-2.12-18.53-1.29C266.56,157.76,261.57,159.7,257.47,159.36Z" style="fill:#222221"/><path d="M196.92,301.15c2.12-10,3.68-11.06,5.8-21" style="fill:none;stroke:#000;stroke-miterlimit:10"/><path d="M355.53,320.06c-.91-14.57-5.77-30-9.15-44.22" style="fill:none;stroke:#000;stroke-miterlimit:10"/><path d="M320.82,177.92c-.12-2.35-.61-4.91-2.38-6.47a10.14,10.14,0,0,0-3.83-1.79,137.1,137.1,0,0,0-64.71-3.21,23.32,23.32,0,0,0-8.68,3c-4.38,2.92-6.57,8.44-6.38,13.71s2.45,10.26,5.44,14.6c11.77,17.1,33.57,23.44,53.29,18.14C308.81,211.81,321.63,193.42,320.82,177.92Z" style="fill:#653089"/><path d="M319.29,191.08a59.51,59.51,0,0,1-27.43,25.77" style="fill:none;stroke:#000;stroke-miterlimit:10"/><path d="M284,218.73c-8.82,1-18,.52-26.18-2.95S242.56,205.56,240.13,197" style="fill:none;stroke:#000;stroke-miterlimit:10"/><line x1="395.79" y1="164.81" x2="414.39" y2="121.81" style="fill:none;stroke:#222221;stroke-linecap:round;stroke-miterlimit:10;stroke-width:4px"/><path d="M261.65,250.22h26.1a63.19,63.19,0,0,1,63.19,63.19V440.54a0,0,0,0,1,0,0H198.45a0,0,0,0,1,0,0V313.41A63.19,63.19,0,0,1,261.65,250.22Z" style="fill:#222221"/><g style="mix-blend-mode:screen"><g style="opacity:0.2"><path d="M476.54,236.36a11,11,0,1,0-18.84,0c3,5.31,3.58,6.58,3.61,9,.06,3.64,0,6.54,0,6.54h11.61s-.05-2.9,0-6.54C473,242.94,473.57,241.67,476.54,236.36Z"/></g><path d="M472.92,252.41H461.31a.51.51,0,0,1-.36-.15.54.54,0,0,1-.14-.36s.06-2.94,0-6.52c0-2.3-.61-3.53-3.55-8.78a11.51,11.51,0,1,1,19.71,0c-2.93,5.23-3.51,6.46-3.54,8.76-.05,3.58,0,6.49,0,6.52a.51.51,0,0,1-.51.51Zm-11.1-1h10.59c0-1,0-3.33,0-6,0-2.53.64-3.81,3.68-9.25a10.5,10.5,0,1,0-18,0c3.05,5.45,3.65,6.73,3.69,9.26C461.86,248.08,461.84,250.41,461.82,251.41Z" style="fill:#fff"/><path d="M467.12,253.57H463c.62,3.32,4.13,3.32,4.13,3.32s3.51,0,4.12-3.32Z" style="fill:#fff"/><path d="M474.71,247.79a1.82,1.82,0,0,1-1.93,1.7H461.46a1.82,1.82,0,0,1-1.93-1.7h0a1.82,1.82,0,0,1,1.93-1.69h11.32a1.82,1.82,0,0,1,1.93,1.69Z" style="fill:#fff"/><path d="M472.78,250H461.46a2.21,2.21,0,1,1,0-4.39h11.32a2.21,2.21,0,1,1,0,4.39Zm-11.32-3.39a1.21,1.21,0,1,0,0,2.38h11.32a1.21,1.21,0,1,0,0-2.38Z" style="fill:#fff"/><path d="M467.35,211.85a.75.75,0,0,1,.75.75V217a.74.74,0,0,1-.75.75h0a.74.74,0,0,1-.75-.75V212.6a.75.75,0,0,1,.75-.75Z" style="fill:#fff"/><path d="M457.37,214.44a.74.74,0,0,1,1,.28l2.2,3.8a.74.74,0,0,1-.28,1h0a.74.74,0,0,1-1-.27l-2.2-3.8a.75.75,0,0,1,.28-1Z" style="fill:#fff"/><path d="M450,221.68a.75.75,0,0,1,1-.28l3.81,2.2a.75.75,0,0,1,.27,1h0a.75.75,0,0,1-1,.28l-3.8-2.2a.75.75,0,0,1-.28-1Z" style="fill:#fff"/><path d="M447.27,231.62a.74.74,0,0,1,.75-.75h4.39a.75.75,0,0,1,.75.75h0a.76.76,0,0,1-.75.75H448a.75.75,0,0,1-.75-.75Z" style="fill:#fff"/><path d="M449.86,241.6a.76.76,0,0,1,.27-1l3.81-2.19a.74.74,0,0,1,1,.27h0a.75.75,0,0,1-.27,1l-3.8,2.2a.76.76,0,0,1-1-.28Z" style="fill:#fff"/><path d="M477.33,214.44a.74.74,0,0,0-1,.28l-2.2,3.8a.74.74,0,0,0,.28,1h0a.75.75,0,0,0,1-.27l2.19-3.8a.75.75,0,0,0-.28-1Z" style="fill:#fff"/><path d="M484.69,221.68a.75.75,0,0,0-1-.28l-3.8,2.2a.74.74,0,0,0-.28,1h0a.75.75,0,0,0,1,.28l3.8-2.2a.75.75,0,0,0,.28-1Z" style="fill:#fff"/><path d="M487.43,231.62a.74.74,0,0,0-.75-.75h-4.39a.75.75,0,0,0-.75.75h0a.76.76,0,0,0,.75.75h4.39a.75.75,0,0,0,.75-.75Z" style="fill:#fff"/><path d="M484.84,241.6a.75.75,0,0,0-.27-1l-3.8-2.19a.75.75,0,0,0-1,.27h0a.76.76,0,0,0,.27,1l3.81,2.2a.75.75,0,0,0,1-.28Z" style="fill:#fff"/><path d="M474.71,251.54a1.82,1.82,0,0,1-1.93,1.69H461.46a1.82,1.82,0,0,1-1.93-1.69h0a1.82,1.82,0,0,1,1.93-1.7h11.32a1.82,1.82,0,0,1,1.93,1.7Z" style="fill:#fff"/><path d="M472.78,253.73H461.46a2.21,2.21,0,1,1,0-4.39h11.32a2.21,2.21,0,1,1,0,4.39Zm-11.32-3.38a1.21,1.21,0,1,0,0,2.38h11.32a1.21,1.21,0,1,0,0-2.38Z" style="fill:#fff"/></g><g style="mix-blend-mode:screen"><g style="opacity:0.2"><path d="M484,121.78h0c-.15-.16-18.39-15.51-18.39-15.51l-17.86,15.11a2.18,2.18,0,0,0-1.16,1.92v23.09a2.2,2.2,0,0,0,2.19,2.19h33.66a2.19,2.19,0,0,0,2.18-2.19V123.3C484.59,121.92,484,121.78,484,121.78Z"/></g><path d="M482.41,149H448.75a2.64,2.64,0,0,1-2.64-2.64V123.3a2.62,2.62,0,0,1,1.35-2.29l17.83-15.09a.45.45,0,0,1,.58,0c4.11,3.46,17.16,14.45,18.34,15.47.27.13.84.55.84,1.91v23.09A2.64,2.64,0,0,1,482.41,149Zm-16.83-42.17L448,121.73l-.08,0a1.75,1.75,0,0,0-.92,1.52v23.09a1.74,1.74,0,0,0,1.74,1.74h33.66a1.74,1.74,0,0,0,1.73-1.74V123.3c0-.77-.22-1-.3-1.09l-.1,0-.09-.07C483.36,121.83,471.87,112.16,465.58,106.86Z" style="fill:#fff"/><path d="M465.58,140l-19-16.72v23.09a2.2,2.2,0,0,0,2.19,2.19h33.66a2.19,2.19,0,0,0,2.18-2.19V123.3Z" style="fill:#fff"/><path d="M482.41,148.54H448.75a2.19,2.19,0,0,1-2.19-2.19l19-13.55,19,13.55A2.19,2.19,0,0,1,482.41,148.54Z" style="fill:#fff"/><g style="opacity:0.2"><circle cx="465.7" cy="137.05" r="6.12" transform="translate(39.49 369.44) rotate(-45)"/></g><path d="M465.7,143.62a6.57,6.57,0,1,1,6.57-6.57A6.57,6.57,0,0,1,465.7,143.62Zm0-12.24a5.67,5.67,0,1,0,5.66,5.67A5.67,5.67,0,0,0,465.7,131.38Z" style="fill:#fff"/><path d="M466.92,135h.62l-.43,2.43a1.17,1.17,0,0,0,0,.6.27.27,0,0,0,.3.19.93.93,0,0,0,.45-.11,1.15,1.15,0,0,0,.41-.33,2,2,0,0,0,.29-.56,3.05,3.05,0,0,0-.11-1.95,2.21,2.21,0,0,0-.62-.79,2.67,2.67,0,0,0-.91-.45,4.68,4.68,0,0,0-1.14-.14,3.27,3.27,0,0,0-1.3.25,3.21,3.21,0,0,0-1.74,1.73,3.71,3.71,0,0,0,0,2.57,2.73,2.73,0,0,0,.61.94,2.78,2.78,0,0,0,1,.6,4.15,4.15,0,0,0,1.37.21,3.37,3.37,0,0,0,.59-.06,2.64,2.64,0,0,0,.6-.19l.28.86a3.15,3.15,0,0,1-.75.25,4.51,4.51,0,0,1-.87.07,4.9,4.9,0,0,1-1.61-.25,3.62,3.62,0,0,1-1.28-.74,3.57,3.57,0,0,1-.85-1.22,4.77,4.77,0,0,1,0-3.46,4,4,0,0,1,.94-1.34,4.11,4.11,0,0,1,1.37-.85,4.56,4.56,0,0,1,1.65-.3,5.05,5.05,0,0,1,1.53.23,3.71,3.71,0,0,1,1.22.68,3.17,3.17,0,0,1,.82,1.09,3.51,3.51,0,0,1,.29,1.45,2.81,2.81,0,0,1-.75,2,2.88,2.88,0,0,1-.83.58,2.39,2.39,0,0,1-1,.21,1.42,1.42,0,0,1-.42,0,.66.66,0,0,1-.51-.47,1,1,0,0,1,0-.46h0a4.57,4.57,0,0,1-.29.36,2.05,2.05,0,0,1-.34.32,1.46,1.46,0,0,1-.91.3,1,1,0,0,1-.41-.09,1.1,1.1,0,0,1-.34-.27,1.46,1.46,0,0,1-.23-.41,1.8,1.8,0,0,1-.08-.54,3.21,3.21,0,0,1,.18-1.07,3.17,3.17,0,0,1,.49-.93,2.43,2.43,0,0,1,.71-.65,1.68,1.68,0,0,1,.86-.25,1.35,1.35,0,0,1,.53.1,1.47,1.47,0,0,1,.4.24Zm-.57,1.08a1.05,1.05,0,0,0-.24-.15.72.72,0,0,0-.31-.05.89.89,0,0,0-.5.15,1.32,1.32,0,0,0-.39.39,1.69,1.69,0,0,0-.26.54,2.06,2.06,0,0,0-.09.59.85.85,0,0,0,.12.48.45.45,0,0,0,.42.19.6.6,0,0,0,.27-.07,1.65,1.65,0,0,0,.27-.21,2.33,2.33,0,0,0,.26-.28,2.54,2.54,0,0,0,.23-.34Z" style="fill:#fff"/><g style="opacity:0.2"><path d="M462.84,121.79a3.84,3.84,0,1,1-5.39-.69A3.85,3.85,0,0,1,462.84,121.79Z"/></g><path d="M459.8,128.43a4.29,4.29,0,1,1,2.62-.89A4.27,4.27,0,0,1,459.8,128.43Zm0-7.68a3.4,3.4,0,0,0-3.36,3,3.42,3.42,0,0,0,.68,2.51,3.39,3.39,0,0,0,6-1.64,3.39,3.39,0,0,0-3.36-3.82Z" style="fill:#fff"/><path d="M460.84,126a2.45,2.45,0,0,1-.5.3,2,2,0,0,1-.39.13l-.24-.67a1.85,1.85,0,0,0,.32-.08,2.41,2.41,0,0,0,.41-.22l-.73-.94a2.57,2.57,0,0,1-.4.08,1.34,1.34,0,0,1-.4,0,1,1,0,0,1-.73-.44,1.06,1.06,0,0,1-.27-.78,1.22,1.22,0,0,1,.35-.73l-.32-.42.48-.37.31.4a2,2,0,0,1,.4-.22,2.6,2.6,0,0,1,.36-.13l.23.65a1.08,1.08,0,0,0-.26.08,1.3,1.3,0,0,0-.32.15l.68.87.4-.07a1.13,1.13,0,0,1,.41,0,1,1,0,0,1,.39.12,1,1,0,0,1,.34.3,1.2,1.2,0,0,1,.3.83,1.32,1.32,0,0,1-.35.77l.33.43-.48.37Zm-2.1-2.36a.4.4,0,0,0,.29.15,2,2,0,0,0,.4,0l-.58-.76a.59.59,0,0,0-.22.34A.53.53,0,0,0,458.74,123.66Zm2.07.89a.36.36,0,0,0-.31-.15,2.17,2.17,0,0,0-.41,0l.63.81a.6.6,0,0,0,.2-.36A.44.44,0,0,0,460.81,124.55Z" style="fill:#fff"/><g style="opacity:0.2"><path d="M447,95.75a4.43,4.43,0,1,1-6.22-.8A4.44,4.44,0,0,1,447,95.75Z"/></g><path d="M443.5,103.35a4.84,4.84,0,0,1-3.87-1.9,4.9,4.9,0,0,1,.88-6.86,4.89,4.89,0,0,1,6.86.88,4.89,4.89,0,0,1-3.87,7.88Zm0-8.87a3.93,3.93,0,0,0-2.44.83,4,4,0,1,0,2.44-.83Z" style="fill:#fff"/><path d="M444.66,100.54a3.22,3.22,0,0,1-.56.34,1.9,1.9,0,0,1-.44.15l-.25-.75a1.57,1.57,0,0,0,.34-.09,2.28,2.28,0,0,0,.46-.24l-.81-1A3.11,3.11,0,0,1,443,99a1.31,1.31,0,0,1-.44,0,1.36,1.36,0,0,1-.43-.14,1.41,1.41,0,0,1-.39-.35,1.16,1.16,0,0,1-.29-.87,1.31,1.31,0,0,1,.39-.81l-.36-.47L442,96l.34.45a2.6,2.6,0,0,1,.45-.25,3.56,3.56,0,0,1,.39-.13l.26.71a1.55,1.55,0,0,0-.29.09,2.23,2.23,0,0,0-.35.17l.75,1a3,3,0,0,1,.45-.09,1.7,1.7,0,0,1,.45,0,1.41,1.41,0,0,1,.43.13,1.34,1.34,0,0,1,.39.34,1.3,1.3,0,0,1,.32.92,1.38,1.38,0,0,1-.39.85l.37.48L445,101Zm-2.34-2.61a.44.44,0,0,0,.32.17,1.82,1.82,0,0,0,.45,0l-.64-.83a.52.52,0,0,0-.24.37A.5.5,0,0,0,442.32,97.93Zm2.3,1a.4.4,0,0,0-.34-.17,2,2,0,0,0-.46.06l.7.9a.63.63,0,0,0,.22-.4A.48.48,0,0,0,444.62,98.92Z" style="fill:#fff"/><g style="opacity:0.2"><path d="M461.35,112.14a6.62,6.62,0,1,1-3.56-8.66A6.61,6.61,0,0,1,461.35,112.14Z"/></g><path d="M455.24,116.66a7.07,7.07,0,1,1,6.53-4.35A7.06,7.06,0,0,1,455.24,116.66Zm0-13.24a6.17,6.17,0,0,0-2.38,11.86,6,6,0,0,0,2.37.48,6.17,6.17,0,0,0,2.37-11.86A6,6,0,0,0,455.25,103.42Z" style="fill:#fff"/><g style="opacity:0.2"><path d="M459.36,111.31a4.46,4.46,0,1,1-2.4-5.84A4.47,4.47,0,0,1,459.36,111.31Z"/></g><path d="M455.24,114.51a4.92,4.92,0,1,1,4.54-3A4.91,4.91,0,0,1,455.24,114.51Zm0-8.93a4,4,0,0,0-1.55,7.72,4.07,4.07,0,0,0,1.54.31,4,4,0,0,0,1.54-7.72A3.88,3.88,0,0,0,455.25,105.58Z" style="fill:#fff"/><path d="M453.76,112a3.58,3.58,0,0,1-.68-.39,1.93,1.93,0,0,1-.41-.37l.62-.71a1.22,1.22,0,0,0,.3.31,3.36,3.36,0,0,0,.52.33l.6-1.46a4.62,4.62,0,0,1-.34-.41,1.5,1.5,0,0,1-.27-.45,1.36,1.36,0,0,1-.11-.53,1.64,1.64,0,0,1,.13-.62,1.5,1.5,0,0,1,.73-.82,1.67,1.67,0,0,1,1.07-.07l.28-.66.75.31-.26.63a3,3,0,0,1,.51.32,3.11,3.11,0,0,1,.38.33l-.59.68a3.33,3.33,0,0,0-.26-.24,2.4,2.4,0,0,0-.39-.26l-.56,1.35c.12.13.24.27.35.41a1.89,1.89,0,0,1,.28.47,1.52,1.52,0,0,1,.12.53,1.39,1.39,0,0,1-.12.6,1.61,1.61,0,0,1-.77.89,1.65,1.65,0,0,1-1.11.1l-.28.67-.75-.32Zm1.34-4a.47.47,0,0,0,0,.43,2.37,2.37,0,0,0,.31.44l.49-1.17a.71.71,0,0,0-.53,0A.61.61,0,0,0,455.1,108.05Zm.33,3a.45.45,0,0,0,0-.45,2.15,2.15,0,0,0-.33-.45l-.53,1.26a.76.76,0,0,0,.56,0A.65.65,0,0,0,455.43,111Z" style="fill:#fff"/><path d="M472.35,117.43c0,.12-.08.22-.17.21l-.85,0a.22.22,0,0,1-.15-.23l0-.68c0-.12.08-.21.17-.21l.85,0c.09,0,.15.11.15.23Z" style="fill:#fff"/><path d="M472,124.09a.2.2,0,0,0-.15-.23l-.84,0c-.09,0-.17.09-.18.21l0,.68a.2.2,0,0,0,.15.23l.85,0c.09,0,.16-.09.17-.21Z" style="fill:#fff"/><path d="M470.6,117.5c.06.11,0,.22,0,.26l-.76.39c-.08,0-.18,0-.24-.12l-.31-.61a.2.2,0,0,1,0-.27l.76-.38a.19.19,0,0,1,.24.12Z" style="fill:#fff"/><path d="M473.64,123.43c-.06-.11-.16-.16-.24-.12l-.76.39a.19.19,0,0,0-.05.26l.32.61a.19.19,0,0,0,.24.12l.76-.38a.21.21,0,0,0,0-.27Z" style="fill:#fff"/><path d="M469.12,118.43a.2.2,0,0,1,.1.25l-.47.72c0,.07-.17.08-.27,0l-.57-.37a.2.2,0,0,1-.1-.25l.47-.72c0-.07.16-.08.27,0Z" style="fill:#fff"/><path d="M474.71,122.05a.19.19,0,0,0-.27,0l-.46.71a.2.2,0,0,0,.1.25l.57.37c.1.07.23.06.27,0l.46-.71a.2.2,0,0,0-.09-.26Z" style="fill:#fff"/><path d="M468.3,120c.12,0,.22.08.21.17l0,.85c0,.09-.11.15-.23.15l-.68,0c-.12,0-.22-.08-.21-.17l0-.85c0-.09.11-.15.23-.15Z" style="fill:#fff"/><path d="M475,120.32a.2.2,0,0,0-.23.14l0,.85c0,.09.09.17.21.17l.68,0c.12,0,.22-.06.23-.15l0-.85c0-.09-.09-.16-.21-.17Z" style="fill:#fff"/><path d="M468.37,121.73a.18.18,0,0,1,.26,0l.39.76a.19.19,0,0,1-.12.24l-.61.31a.19.19,0,0,1-.27,0l-.38-.76a.19.19,0,0,1,.12-.24Z" style="fill:#fff"/><path d="M474.3,118.69c-.11.06-.16.17-.12.24l.38.76a.19.19,0,0,0,.27,0l.61-.31a.19.19,0,0,0,.12-.24l-.39-.76c0-.07-.15-.09-.26,0Z" style="fill:#fff"/><path d="M469.3,123.21a.2.2,0,0,1,.25-.1l.71.47c.08,0,.09.17,0,.27l-.37.57a.22.22,0,0,1-.26.1l-.71-.47c-.07,0-.08-.16,0-.26Z" style="fill:#fff"/><path d="M472.92,117.62a.19.19,0,0,0,0,.27l.71.46a.2.2,0,0,0,.25-.1l.37-.57a.2.2,0,0,0,0-.27l-.72-.46c-.07,0-.18,0-.25.09Z" style="fill:#fff"/><path d="M471.78,117.16a3.58,3.58,0,1,0,3.39,3.75A3.58,3.58,0,0,0,471.78,117.16Zm-.3,5.92a2.35,2.35,0,1,1,2.47-2.23A2.34,2.34,0,0,1,471.48,123.08Z" style="fill:#fff"/><g style="opacity:0.2"><path d="M474.81,106.93l4.66-2.92-4.32-3.4A5.49,5.49,0,0,0,474.81,106.93Z"/></g><path d="M474.81,107.38h-.1a.5.5,0,0,1-.29-.2,6,6,0,0,1,.37-6.84.46.46,0,0,1,.64-.08l4.32,3.41a.46.46,0,0,1,0,.74l-4.66,2.91A.55.55,0,0,1,474.81,107.38Zm.43-6.13a5,5,0,0,0-.27,5l3.71-2.32Z" style="fill:#fff"/><g style="opacity:0.2"><path d="M477.93,96.36l2.05,5.1,4-3.77a6.19,6.19,0,0,0-.59-.55A5.51,5.51,0,0,0,477.93,96.36Z"/></g><path d="M480,101.91h-.09a.45.45,0,0,1-.33-.27l-2.05-5.1a.5.5,0,0,1,0-.34.51.51,0,0,1,.25-.25,6,6,0,0,1,5.91.85,6.76,6.76,0,0,1,.64.59.46.46,0,0,1,0,.64l-4,3.77A.43.43,0,0,1,480,101.91Zm-1.46-5.28,1.63,4.05,3.18-3-.22-.18A5.09,5.09,0,0,0,478.52,96.63Z" style="fill:#fff"/><path d="M476.06,108.33a5.45,5.45,0,0,0,3.85,1.16l-.44-5.48-4.66,2.92A5.34,5.34,0,0,0,476.06,108.33Z" style="fill:#fff"/><path d="M479.46,110a5.86,5.86,0,0,1-3.68-1.28,5.8,5.8,0,0,1-1.36-1.51.47.47,0,0,1,.15-.63l4.66-2.91a.43.43,0,0,1,.44,0,.47.47,0,0,1,.25.37l.44,5.47a.45.45,0,0,1-.41.49Zm-4-2.9a4.8,4.8,0,0,0,.89.91,5,5,0,0,0,3.08,1.09l-.34-4.27Z" style="fill:#fff"/><path d="M475.15,100.61l4.32,3.4-2.06-5.1A5.4,5.4,0,0,0,475.15,100.61Z" style="fill:#fff"/><path d="M479.47,104.46a.47.47,0,0,1-.28-.09L474.87,101a.45.45,0,0,1-.08-.63,6,6,0,0,1,2.45-1.84.45.45,0,0,1,.59.26l2.05,5.09a.45.45,0,0,1-.14.53A.46.46,0,0,1,479.47,104.46Zm-3.67-3.92,2.61,2.07-1.24-3.09A5.1,5.1,0,0,0,475.8,100.54Z" style="fill:#fff"/><path d="M479.47,104l5.28,1.51a5.51,5.51,0,0,0-1.29-5.28Z" style="fill:#fff"/><path d="M484.75,106l-.12,0-5.29-1.5a.47.47,0,0,1-.31-.33.45.45,0,0,1,.13-.44l4-3.77a.46.46,0,0,1,.64,0,6,6,0,0,1,1.4,5.71.49.49,0,0,1-.22.27A.43.43,0,0,1,484.75,106Zm-4.4-2.18,4.07,1.16a5.09,5.09,0,0,0-1-4.06Z" style="fill:#fff"/><g style="opacity:0.2"><path d="M479.47,104l.44,5.48a5.5,5.5,0,0,0,1.82-.47,5.36,5.36,0,0,0,2-1.6,5.44,5.44,0,0,0,1-1.9Z"/></g><path d="M479.91,109.94a.46.46,0,0,1-.29-.11.43.43,0,0,1-.16-.3l-.45-5.48a.45.45,0,0,1,.58-.47l5.28,1.5a.47.47,0,0,1,.32.56,6.09,6.09,0,0,1-1.05,2.06,5.91,5.91,0,0,1-2.23,1.73,6,6,0,0,1-2,.51Zm.06-5.32.35,4.36a5.21,5.21,0,0,0,1.22-.37,4.94,4.94,0,0,0,2.63-2.79Z" style="fill:#fff"/></g><g style="mix-blend-mode:screen"><path d="M107.11,82.59a16.4,16.4,0,0,1-3.31-1.37l-3.26,3.26-6.68-6.67,3.27-3.27a16.87,16.87,0,0,1-1.38-3.32H91.13V61.78h4.62a16.5,16.5,0,0,1,1.37-3.31L93.86,55.2l6.68-6.67,3.26,3.26a17.64,17.64,0,0,1,3.31-1.37V45.8h9.44v4.62a16.83,16.83,0,0,1,3.32,1.37l3.27-3.27,6.67,6.68-3.26,3.27a16.54,16.54,0,0,1,1.38,3.31h4.61v9.44h-4.61a16.87,16.87,0,0,1-1.38,3.32l3.26,3.26-6.67,6.68-3.27-3.27a16.2,16.2,0,0,1-3.31,1.38v4.62h-9.45Zm8.44-.77.37-.1a15.42,15.42,0,0,0,3.78-1.57L120,80l3.1,3.1,5.24-5.25-3.09-3.09.19-.34a15.92,15.92,0,0,0,1.58-3.79l.1-.37h4.37V62.79h-4.37l-.1-.37a15.84,15.84,0,0,0-1.58-3.78l-.19-.34,3.09-3.1L123.14,50,120,53.06l-.34-.2a15.42,15.42,0,0,0-3.78-1.57l-.38-.1V46.81h-7.41v4.38l-.38.1A15.42,15.42,0,0,0,104,52.86l-.34.2L100.54,50,95.29,55.2l3.1,3.1-.2.34a15.42,15.42,0,0,0-1.57,3.78l-.1.37H92.14v7.42h4.38l.1.37a15.33,15.33,0,0,0,1.57,3.79l.2.34-3.1,3.1,5.25,5.24,3.1-3.1.33.2a15.58,15.58,0,0,0,3.78,1.57l.38.1V86.2h7.42ZM99.39,66.5A12.45,12.45,0,1,1,111.84,79,12.46,12.46,0,0,1,99.39,66.5Zm1,0a11.44,11.44,0,1,0,11.44-11.43A11.45,11.45,0,0,0,100.4,66.5Z" style="fill:#6ff685"/><path d="M81.28,103.23a12.37,12.37,0,0,1-2.51,0l-1.39,3.18-6.67-2.92,1.38-3.18a12.3,12.3,0,0,1-1.73-1.8l-3.23,1.27L64.47,93l3.23-1.26a12.35,12.35,0,0,1,0-2.51l-3.18-1.39,2.92-6.67,3.17,1.38a12.9,12.9,0,0,1,1.81-1.73l-1.26-3.23L78,74.88l1.27,3.23a12.27,12.27,0,0,1,2.5,0L83.14,75l6.68,2.91-1.39,3.18a12.35,12.35,0,0,1,1.73,1.81l3.24-1.27,2.66,6.78-3.23,1.27a12.27,12.27,0,0,1,0,2.5L96,93.55,93,100.23l-3.17-1.39a12.42,12.42,0,0,1-1.81,1.74l1.27,3.22-6.78,2.66Zm5.55-3,.32-.23a12,12,0,0,0,2.18-2.09l.24-.3,3,1.29,2.11-4.83-3-1.29.06-.38a11.23,11.23,0,0,0,0-3l0-.39,3-1.18-1.91-4.9-3,1.18-.23-.31a12,12,0,0,0-2.09-2.18l-.31-.24,1.29-3-4.81-2.1-1.3,3L82,79.21a11.3,11.3,0,0,0-3,0l-.38,0-1.18-3-4.89,1.92,1.17,3-.31.23a11.27,11.27,0,0,0-2.17,2.08l-.25.31L68,82.45,65.9,87.27l3,1.29-.06.38a11.3,11.3,0,0,0,0,3l0,.39-3,1.18,1.93,4.9,3-1.18.23.31A11.32,11.32,0,0,0,73,99.73l.3.24-1.29,3L76.86,105l1.29-3,.39.06a11.22,11.22,0,0,0,3,0l.39,0,1.18,3L88,103.23Zm-10.33-1a9.38,9.38,0,1,1,3.75.79A9.34,9.34,0,0,1,76.5,99.28Zm-3.92-12a8.4,8.4,0,0,0,4.33,11,8.2,8.2,0,0,0,3.34.7,8.36,8.36,0,0,0,7.81-11.43,8.38,8.38,0,0,0-15.48-.3Z" style="fill:#fff"/></g><path d="M334.4,58.58h0a1.05,1.05,0,0,1-1-.61l-.9-2.25a2.59,2.59,0,0,1-2.3-2.57,2.56,2.56,0,0,1,.6-1.65l-3-7.46a1,1,0,0,1,0-.72,1.41,1.41,0,0,1,.79-.74,1.22,1.22,0,0,1,1.6.49l3,7.54a2.59,2.59,0,0,1,2.12,2.54,2.56,2.56,0,0,1-.5,1.51l.95,2.34a1.19,1.19,0,0,1-.82,1.46A1.52,1.52,0,0,1,334.4,58.58Zm0-1.06a.37.37,0,0,0,.25,0,.47.47,0,0,0,.21-.14l-1.16-2.89.23-.24a1.57,1.57,0,0,0,.43-1.06,1.54,1.54,0,0,0-1.47-1.53h-.34l-3.25-8.09a.37.37,0,0,0-.25,0,.47.47,0,0,0-.21.14L332,51.77l-.27.24a1.49,1.49,0,0,0-.52,1.14,1.53,1.53,0,0,0,1.53,1.53h.43Z" style="fill:#fff"/><path d="M332.83,43.52a.53.53,0,0,1-.53-.53V41a.52.52,0,0,1,.53-.52.52.52,0,0,1,.52.52v2A.52.52,0,0,1,332.83,43.52Z" style="fill:#fff"/><path d="M332.83,65.86a.53.53,0,0,1-.53-.53V63.38a.52.52,0,0,1,.53-.52.52.52,0,0,1,.52.52v1.95A.52.52,0,0,1,332.83,65.86Z" style="fill:#fff"/><path d="M345,53.71h-2a.52.52,0,0,1-.52-.52.52.52,0,0,1,.52-.53h2a.53.53,0,0,1,.53.53A.52.52,0,0,1,345,53.71Z" style="fill:#fff"/><path d="M324.24,62.3a.5.5,0,0,1-.37-.16.51.51,0,0,1,0-.74L325.24,60a.53.53,0,0,1,.75.75l-1.38,1.37A.5.5,0,0,1,324.24,62.3Z" style="fill:#fff"/><path d="M340,46.5a.55.55,0,0,1-.38-.15.53.53,0,0,1,0-.74L341,44.23a.53.53,0,0,1,.75,0,.53.53,0,0,1,0,.74l-1.38,1.38A.55.55,0,0,1,340,46.5Z" style="fill:#fff"/><path d="M341.41,62.3a.5.5,0,0,1-.37-.16l-1.38-1.37a.53.53,0,0,1,.75-.75l1.38,1.38a.53.53,0,0,1,0,.74A.52.52,0,0,1,341.41,62.3Z" style="fill:#fff"/><path d="M325.62,46.5a.55.55,0,0,1-.38-.15L323.87,45a.52.52,0,1,1,.74-.74L326,45.6a.53.53,0,0,1-.37.9Z" style="fill:#fff"/><path d="M338.94,68.57A16.54,16.54,0,1,1,329.51,37l.48-.15-.07-.49s0-.06,0-.09A1.26,1.26,0,0,1,331.2,35h.54l0-2.51-1.66,0A1.54,1.54,0,0,1,328.51,31a1.52,1.52,0,0,1,.43-1.09,1.58,1.58,0,0,1,1.08-.47l5.69-.09a1.54,1.54,0,0,1,0,3.07l-1.77,0L334,35h.59a1.25,1.25,0,0,1,1.25,1.24,1.37,1.37,0,0,1,0,.16l-.07.49.48.1A16.6,16.6,0,0,1,349.36,53.2a15.69,15.69,0,0,1-.15,2.19,9,9,0,0,1,1,.62,17.28,17.28,0,0,0,.23-2.81,17.67,17.67,0,0,0-13.53-17.11A2.31,2.31,0,0,0,335,34v-.5l.71,0a2.59,2.59,0,1,0-.08-5.17l-5.66.09a2.6,2.6,0,0,0-2.55,2.63,2.6,2.6,0,0,0,2.62,2.54h.58V34a2.3,2.3,0,0,0-1.8,2,17.59,17.59,0,1,0,10.9,33.3A10.33,10.33,0,0,1,338.94,68.57Z" style="fill:#fff"/><path d="M332.82,38.53a14.68,14.68,0,1,0,5,28.48,10.59,10.59,0,0,1-.46-1,13.62,13.62,0,1,1,9.1-12.85q0,.64-.06,1.26a7.11,7.11,0,0,1,1,.22,14.52,14.52,0,0,0,.07-1.48A14.69,14.69,0,0,0,332.82,38.53Z" style="fill:#fff"/><path d="M345.19,72.31a9.46,9.46,0,1,1,9.46-9.46A9.47,9.47,0,0,1,345.19,72.31Zm0-17.87a8.41,8.41,0,1,0,8.41,8.41A8.42,8.42,0,0,0,345.19,54.44Zm.13,12.38a1,1,0,0,1-.64-.24L340,62.46a.86.86,0,0,1-.29-.65,1,1,0,0,1,.25-.63l.67-.76a.94.94,0,0,1,1.27-.13l3.3,2.91,4.38-5a.93.93,0,0,1,1.28-.05l.68.6a1,1,0,0,1,.33.66.83.83,0,0,1-.22.62L346,66.54A.83.83,0,0,1,345.32,66.82Zm-4.48-5,4.45,3.92,5.48-6.21-.5-.44-5,5.63-4-3.49Z" style="fill:#6ff685"/><polygon points="72.99 174.11 67.84 171.35 62.65 174.03 63.69 168.28 59.54 164.17 65.32 163.38 67.95 158.17 70.49 163.42 76.26 164.31 72.05 168.35 72.99 174.11" style="fill:#eb2179"/><rect x="453.24" y="168.41" width="4.72" height="16.99" style="fill:#eb2179"/><rect x="464.88" y="168.41" width="4.72" height="16.99" style="fill:#eb2179"/><rect x="414.64" y="55.23" width="4.72" height="16.99" style="fill:#6ff685"/><rect x="414.64" y="55.23" width="4.72" height="16.99" transform="translate(353.28 480.72) rotate(-90)" style="fill:#6ff685"/><path d="M195.08,36.79h0a2.29,2.29,0,0,1-2.29-2.29V-2.67A2.29,2.29,0,0,1,195.08-5h0a2.3,2.3,0,0,1,2.29,2.29V34.5A2.3,2.3,0,0,1,195.08,36.79Z" style="fill:#fff"/><path d="M199.54,57.06A4.56,4.56,0,1,1,195,52.5,4.56,4.56,0,0,1,199.54,57.06Z" style="fill:#fff"/><path d="M208.86,43.29c-2.45-7.32-.89-17.06-6.81-22.8a10.34,10.34,0,0,0-7.68-3.06c-5,.33-8.66,4.68-10.23,9.08C182.23,31.87,182.8,37.61,181,43c-.47,1.39-5.39,13-5.18,13h38.32C214.35,56,209.33,44.67,208.86,43.29Z" style="fill:#eb2179"/></g></g></g></svg>