<?xml version="1.0" encoding="utf-8"?>
<!-- Generator: Adobe Illustrator 23.0.0, SVG Export Plug-In . SVG Version: 6.00 Build 0)  -->
<svg version="1.1" id="Layer_1" xmlns="http://www.w3.org/2000/svg" xmlns:xlink="http://www.w3.org/1999/xlink" x="0px" y="0px"
	 viewBox="0 0 33 22" style="enable-background:new 0 0 33 22;" xml:space="preserve">
<style type="text/css">
	.st0{fill:url(#SVGID_1_);}
	.st1{fill:#D8A1FF;}
</style>
<g>
	
		<radialGradient id="SVGID_1_" cx="-705.2237" cy="222.899" r="2.880777e-02" gradientTransform="matrix(545.6736 0 0 -528.3113 384834.9063 117765.5234)" gradientUnits="userSpaceOnUse">
		<stop  offset="0" style="stop-color:#442F55;stop-opacity:0.98"/>
		<stop  offset="1" style="stop-color:#12002C"/>
	</radialGradient>
	<path class="st0" d="M6.2,0.9h20.7v20.1H6.2V0.9z"/>
	<path class="st1" d="M6.2,0.9h20.7v20.1H6.2V0.9z M5.2,22h22.6V0H5.2V22z M21.2,10.6c0.5,0,0.6,0,0.7,0c0-0.1,0-0.1,0-0.2
		c0-0.5-0.2-1.4-1.2-1.4c-0.9,0-1.3,0.8-1.4,1.6H21.2L21.2,10.6z M19.3,11.9c0,1.3,0.6,2.1,2,2.1c0.6,0,1-0.1,1.5-0.3
		c0.1,0,0.1,0,0.1,0.1V15c0,0.1,0,0.1-0.1,0.2c-0.5,0.2-1.1,0.4-1.9,0.4c-2.5,0-3.4-1.8-3.4-3.9c0-2.2,1.1-4,3.2-4
		c2,0,2.8,1.7,2.8,3.1c0,0.5,0,0.8-0.1,1c0,0.1,0,0.1-0.1,0.1c-0.2,0-0.7,0.1-1.6,0.1L19.3,11.9L19.3,11.9z M14.2,10.9
		c-0.3-1-0.9-3.3-1.1-4.4h0c-0.2,1.1-0.7,3-1.1,4.4H14.2z M11.6,12.5l-0.7,2.8c0,0.1,0,0.1-0.1,0.1H9.3c-0.1,0-0.1,0-0.1-0.1
		l2.7-9.3C12,5.7,12,5.6,12,5.1C12,5.1,12,5,12.1,5h2c0.1,0,0.1,0,0.1,0.1l3,10.1c0,0.1,0,0.1-0.1,0.1h-1.6c-0.1,0-0.1,0-0.1-0.1
		l-0.8-2.8L11.6,12.5L11.6,12.5z"/>
</g>
</svg>
