<?xml version="1.0" encoding="utf-8"?>
<!-- Generator: Adobe Illustrator 23.0.0, SVG Export Plug-In . SVG Version: 6.00 Build 0)  -->
<svg version="1.1" id="Layer_1" xmlns="http://www.w3.org/2000/svg" xmlns:xlink="http://www.w3.org/1999/xlink" x="0px" y="0px"
	 viewBox="0 0 33 22" style="enable-background:new 0 0 33 22;" xml:space="preserve">
<style type="text/css">
	.st0{fill:url(#SVGID_1_);}
	.st1{fill:#FF7F18;}
</style>
<g>
	
		<radialGradient id="SVGID_1_" cx="-705.2237" cy="222.899" r="2.880777e-02" gradientTransform="matrix(545.6736 0 0 -528.3113 384834.9063 117765.5234)" gradientUnits="userSpaceOnUse">
		<stop  offset="0" style="stop-color:#423325;stop-opacity:0.98"/>
		<stop  offset="1" style="stop-color:#1C0A00"/>
	</radialGradient>
	<path class="st0" d="M6.2,0.9h20.7v20.1H6.2V0.9z"/>
	<path class="st1" d="M6.2,0.9h20.7v20.1H6.2V0.9z M5.2,22h22.6V0H5.2V22z M20,7.8c0-0.1,0-0.1,0.1-0.1h1.5c0.1,0,0.1,0,0.1,0.1v7.4
		c0,0.1,0,0.1-0.1,0.1h-1.5c-0.1,0-0.1,0-0.1-0.1L20,7.8L20,7.8L20,7.8z M19.9,5.7c0-0.6,0.4-1,1-1c0.6,0,1,0.4,1,1c0,0.6-0.4,1-1,1
		C20.3,6.7,19.9,6.3,19.9,5.7z M15.7,10.9c-0.3-1-0.9-3.3-1.1-4.4h0c-0.2,1.1-0.7,3-1.1,4.4H15.7z M13.1,12.5l-0.7,2.8
		c0,0.1,0,0.1-0.1,0.1h-1.4c-0.1,0-0.1,0-0.1-0.1l2.7-9.3c0-0.2,0.1-0.3,0.1-0.8c0-0.1,0-0.1,0.1-0.1h2c0.1,0,0.1,0,0.1,0.1l3,10.1
		c0,0.1,0,0.1-0.1,0.1H17c-0.1,0-0.1,0-0.1-0.1l-0.8-2.8H13.1L13.1,12.5z"/>
</g>
</svg>
