<?xml version="1.0" encoding="utf-8"?>
<!-- Generator: Adobe Illustrator 23.0.0, SVG Export Plug-In . SVG Version: 6.00 Build 0)  -->
<svg version="1.1" id="Layer_1" xmlns="http://www.w3.org/2000/svg" xmlns:xlink="http://www.w3.org/1999/xlink" x="0px" y="0px"
	 viewBox="0 0 33 22" style="enable-background:new 0 0 33 22;" xml:space="preserve">
<style type="text/css">
	.st0{fill:#F7DF1E;}
</style>
<g>
	<path class="st0" d="M5.5,0h22v22h-22V0z"/>
	<path d="M11.3,18.4l1.7-1c0.3,0.6,0.6,1.1,1.3,1.1c0.7,0,1.1-0.3,1.1-1.3v-7h2.1v7.1c0,2.1-1.3,3.1-3.1,3.1
		C12.7,20.3,11.8,19.4,11.3,18.4"/>
	<path d="M18.6,18.2l1.7-1c0.4,0.7,1,1.3,2,1.3c0.9,0,1.4-0.4,1.4-1c0-0.7-0.6-1-1.5-1.4l-0.5-0.2c-1.5-0.6-2.5-1.4-2.5-3.1
		c0-1.6,1.2-2.7,3-2.7c1.3,0,2.3,0.5,2.9,1.7l-1.6,1c-0.4-0.6-0.7-0.9-1.3-0.9c-0.6,0-1,0.4-1,0.9c0,0.6,0.4,0.9,1.3,1.3l0.5,0.2
		c1.8,0.8,2.7,1.5,2.7,3.2c0,1.9-1.5,2.9-3.4,2.9C20.4,20.3,19.2,19.4,18.6,18.2"/>
</g>
</svg>
