<?xml version="1.0" encoding="utf-8"?>
<!-- Generator: Adobe Illustrator 23.0.0, SVG Export Plug-In . SVG Version: 6.00 Build 0)  -->
<svg version="1.1" id="Layer_1" xmlns="http://www.w3.org/2000/svg" xmlns:xlink="http://www.w3.org/1999/xlink" x="0px" y="0px"
	 viewBox="0 0 33 22" style="enable-background:new 0 0 33 22;" xml:space="preserve">
<style type="text/css">
	.st0{fill-rule:evenodd;clip-rule:evenodd;fill:#8993BE;}
	.st1{fill-rule:evenodd;clip-rule:evenodd;fill:#232531;}
</style>
<g>
	<ellipse class="st0" cx="16.5" cy="11" rx="16.5" ry="8.6"/>
	<path class="st1" d="M4.6,16.1l1.8-9.2h4.2c1.8,0.1,2.7,1,2.7,2.6c0,2.7-2.1,4.3-4.1,4.2h-2l-0.5,2.4H4.6z M7.7,12l0.6-3.4h1.5
		c0.8,0,1.4,0.3,1.4,1c-0.1,1.9-1,2.3-2,2.4L7.7,12L7.7,12z M12.9,13.7l1.8-9.2h2.1l-0.5,2.4h2c1.8,0.1,2.5,1,2.3,2.1l-0.8,4.6h-2.3
		l0.8-4.2c0.1-0.6,0.1-0.9-0.7-0.9h-1.7l-1,5.1H12.9z M19.8,16.1l1.8-9.2h4.2c1.8,0.1,2.7,1,2.7,2.6c0,2.7-2.1,4.3-4.1,4.2h-2
		l-0.5,2.4H19.8z M22.8,12l0.6-3.4h1.5c0.8,0,1.4,0.3,1.4,1c-0.1,1.9-1,2.3-2,2.4H22.8L22.8,12z"/>
</g>
</svg>
