<svg id="Layer_1" data-name="Layer 1" xmlns="http://www.w3.org/2000/svg" xmlns:xlink="http://www.w3.org/1999/xlink" viewBox="0 0 777.42 257.96"><defs><linearGradient id="linear-gradient" x1="-351.29" y1="194.93" x2="79.81" y2="194.93" gradientUnits="userSpaceOnUse"><stop offset="0" stop-color="#2d388c"/><stop offset="1" stop-color="#72ccdb"/></linearGradient><linearGradient id="linear-gradient-2" x1="-438.77" y1="296.49" x2="169.74" y2="296.49" gradientUnits="userSpaceOnUse"><stop offset="0" stop-color="#653089"/><stop offset="0.15" stop-color="#712f88"/><stop offset="0.41" stop-color="#902b84"/><stop offset="0.75" stop-color="#c2267e"/><stop offset="1" stop-color="#eb2179"/></linearGradient></defs><title>Untitled-1</title><path d="M154.08,181.44h17.75a8,8,0,0,1,4.6,1.25,5.69,5.69,0,0,1,2.4,3.31l12.5,47.5c.42,1.55.84,3.19,1.25,4.94a44.07,44.07,0,0,1,.94,5.5q.63-2.94,1.38-5.53c.5-1.73,1-3.36,1.43-4.91L211.08,186a6.56,6.56,0,0,1,2.41-3.15,7.14,7.14,0,0,1,4.47-1.41h6.25a7.88,7.88,0,0,1,4.53,1.22,6.27,6.27,0,0,1,2.47,3.34l14.62,47.5q.69,2.19,1.44,4.66t1.31,5.28c.34-1.83.68-3.58,1-5.25s.71-3.23,1.09-4.69l12.5-47.5a5.91,5.91,0,0,1,2.37-3.18,7.38,7.38,0,0,1,4.5-1.38h16.63L258.58,272.5H239.46l-17.13-56.43q-.44-1.32-.9-2.88c-.31-1-.62-2.14-.91-3.31-.29,1.17-.59,2.27-.9,3.31s-.62,2-.91,2.88L201.33,272.5H182.21Z" transform="translate(138.71 -121.02)" style="fill:#484849"/><path d="M318,272.5H296.71V181.44H318Z" transform="translate(138.71 -121.02)" style="fill:#484849"/><path d="M380.21,237.88V272.5H359.08V237.88l-33-56.44h18.63a6.89,6.89,0,0,1,4.37,1.28,9.59,9.59,0,0,1,2.63,3.28l12.87,26.5,2.88,5.88q1.31,2.69,2.31,5.31a51.08,51.08,0,0,1,2.25-5.37c.88-1.8,1.81-3.73,2.81-5.82L387.58,186a8.1,8.1,0,0,1,1-1.62,9.49,9.49,0,0,1,1.5-1.47,7.25,7.25,0,0,1,1.94-1.06,6.89,6.89,0,0,1,2.41-.41h18.75Z" transform="translate(138.71 -121.02)" style="fill:#484849"/><path d="M491.71,272.5H475.33a7.54,7.54,0,0,1-4.53-1.28,6.57,6.57,0,0,1-2.47-3.28L463,252.07H428.33L423,267.94a7.23,7.23,0,0,1-6.88,4.56h-16.5l35.25-91.06h21.63Zm-58.5-34.81h24.87l-8.37-24.94q-.81-2.37-1.91-5.59t-2.16-7c-.66,2.54-1.35,4.9-2.06,7.06s-1.37,4.05-2,5.63Z" transform="translate(138.71 -121.02)" style="fill:#484849"/><path d="M555.21,181.44v16.75H529.58V272.5H508.46V198.19H482.83V181.44Z" transform="translate(138.71 -121.02)" style="fill:#484849"/><path d="M638.71,272.5H622.34a7.55,7.55,0,0,1-4.54-1.28,6.55,6.55,0,0,1-2.46-3.28L610,252.07H575.34L570,267.94a7.06,7.06,0,0,1-2.44,3.16,7,7,0,0,1-4.43,1.4h-16.5l35.25-91.06h21.62Zm-58.5-34.81h24.88l-8.38-24.94q-.81-2.37-1.91-5.59t-2.15-7c-.67,2.54-1.36,4.9-2.06,7.06s-1.38,4.05-2,5.63Z" transform="translate(138.71 -121.02)" style="fill:#484849"/><path d="M318.59,327a3.51,3.51,0,0,1-1.59-.28,2.19,2.19,0,0,1-.9-1.2l-.52-1.36c-.62.53-1.22,1-1.79,1.39a11.27,11.27,0,0,1-1.78,1,8.46,8.46,0,0,1-2,.62,11.62,11.62,0,0,1-2.3.21,9.92,9.92,0,0,1-3.08-.45,6.38,6.38,0,0,1-2.35-1.3,5.71,5.71,0,0,1-1.5-2.15,7.73,7.73,0,0,1-.52-2.95,6.15,6.15,0,0,1,.67-2.71,6.66,6.66,0,0,1,2.31-2.53,14.67,14.67,0,0,1,4.44-1.9,27.24,27.24,0,0,1,7-.77v-1.06a4.6,4.6,0,0,0-.9-3.17,3.26,3.26,0,0,0-2.54-1,6.79,6.79,0,0,0-2.15.28,9.39,9.39,0,0,0-1.49.65c-.44.24-.86.45-1.28.64a3.52,3.52,0,0,1-1.48.29,2.21,2.21,0,0,1-1.3-.37,2.77,2.77,0,0,1-.85-.92l-1.33-2.32a15.09,15.09,0,0,1,5-2.95,17.61,17.61,0,0,1,5.86-1,10.63,10.63,0,0,1,4.05.73,8.67,8.67,0,0,1,3.06,2,8.88,8.88,0,0,1,1.92,3.09,11.22,11.22,0,0,1,.67,3.91V327Zm-8.5-4.51a5.9,5.9,0,0,0,2.5-.5,7.45,7.45,0,0,0,2.18-1.62V317a18.54,18.54,0,0,0-3.66.29,8.59,8.59,0,0,0-2.26.72,2.72,2.72,0,0,0-1.16,1,2.27,2.27,0,0,0-.32,1.2,2.09,2.09,0,0,0,.69,1.79A3.32,3.32,0,0,0,310.09,322.49Z" transform="translate(138.71 -121.02)" style="fill:#484849"/><path d="M345.09,308.12a3.88,3.88,0,0,1-.65.64,1.4,1.4,0,0,1-.88.24,1.83,1.83,0,0,1-1-.26l-1-.59a8.7,8.7,0,0,0-1.29-.58,5.43,5.43,0,0,0-1.84-.26,5.06,5.06,0,0,0-2.35.5,4.34,4.34,0,0,0-1.64,1.43,6.4,6.4,0,0,0-.95,2.28,13.44,13.44,0,0,0-.31,3.05,9.29,9.29,0,0,0,1.37,5.46,4.4,4.4,0,0,0,3.79,1.91,5.41,5.41,0,0,0,2-.32,5.64,5.64,0,0,0,1.27-.72l1-.72a1.73,1.73,0,0,1,1.11-.34,1.53,1.53,0,0,1,1.34.65l2.15,2.65a11.66,11.66,0,0,1-5,3.42,13.4,13.4,0,0,1-2.66.65,19.49,19.49,0,0,1-2.6.18,11.19,11.19,0,0,1-4.33-.86A10.68,10.68,0,0,1,329,324a11.78,11.78,0,0,1-2.48-4,14.92,14.92,0,0,1-.92-5.44,15.17,15.17,0,0,1,.8-5,11.35,11.35,0,0,1,2.36-4,11,11,0,0,1,3.87-2.69,13.55,13.55,0,0,1,5.33-1,13,13,0,0,1,5.11.93,12.32,12.32,0,0,1,4,2.73Z" transform="translate(138.71 -121.02)" style="fill:#484849"/><path d="M367.53,327a3.51,3.51,0,0,1-1.59-.28,2.18,2.18,0,0,1-.89-1.2l-.53-1.36c-.62.53-1.22,1-1.79,1.39a11.27,11.27,0,0,1-1.78,1,8.31,8.31,0,0,1-2,.62,11.62,11.62,0,0,1-2.3.21,9.92,9.92,0,0,1-3.08-.45,6.38,6.38,0,0,1-2.35-1.3,5.69,5.69,0,0,1-1.49-2.15,7.72,7.72,0,0,1-.53-2.95,6.15,6.15,0,0,1,.67-2.71,6.69,6.69,0,0,1,2.32-2.53,14.45,14.45,0,0,1,4.44-1.9,27.16,27.16,0,0,1,7-.77v-1.06a4.6,4.6,0,0,0-.9-3.17,3.26,3.26,0,0,0-2.54-1,6.84,6.84,0,0,0-2.15.28,9.81,9.81,0,0,0-1.49.65c-.44.24-.86.45-1.28.64a3.49,3.49,0,0,1-1.48.29,2.21,2.21,0,0,1-1.3-.37,2.77,2.77,0,0,1-.85-.92l-1.33-2.32a15,15,0,0,1,5-2.95,17.53,17.53,0,0,1,5.86-1,10.61,10.61,0,0,1,4,.73,8.58,8.58,0,0,1,5,5.12,11,11,0,0,1,.67,3.91V327Zm-8.5-4.51a6,6,0,0,0,2.51-.5,7.55,7.55,0,0,0,2.17-1.62V317a18.36,18.36,0,0,0-3.65.29,8.68,8.68,0,0,0-2.27.72,2.78,2.78,0,0,0-1.16,1,2.37,2.37,0,0,0-.32,1.2A2.09,2.09,0,0,0,357,322,3.32,3.32,0,0,0,359,322.49Z" transform="translate(138.71 -121.02)" style="fill:#484849"/><path d="M393.55,327a2.05,2.05,0,0,1-1.16-.31,1.62,1.62,0,0,1-.65-.93l-.57-1.88a16,16,0,0,1-1.56,1.43,9.6,9.6,0,0,1-1.75,1.11,9,9,0,0,1-2,.71,10.32,10.32,0,0,1-2.35.26,7.63,7.63,0,0,1-3.58-.86,8.32,8.32,0,0,1-2.85-2.49,12.5,12.5,0,0,1-1.87-4,19.48,19.48,0,0,1-.68-5.36,16.74,16.74,0,0,1,.76-5.15,12.61,12.61,0,0,1,2.16-4.1,10,10,0,0,1,3.36-2.71,9.43,9.43,0,0,1,4.32-1,8.43,8.43,0,0,1,3.24.56,9.21,9.21,0,0,1,2.4,1.47V291.26h7.4V327Zm-7.49-5.3a6.49,6.49,0,0,0,1.46-.15,5,5,0,0,0,2.25-1.16,10.32,10.32,0,0,0,1-1V308.88a5,5,0,0,0-1.83-1.3,5.63,5.63,0,0,0-2-.37,4.36,4.36,0,0,0-1.89.41,3.81,3.81,0,0,0-1.49,1.3,7,7,0,0,0-1,2.33,14.36,14.36,0,0,0-.36,3.46,16.06,16.06,0,0,0,.29,3.29,6.6,6.6,0,0,0,.8,2.16,3.1,3.1,0,0,0,1.23,1.19A3.62,3.62,0,0,0,386.06,321.7Z" transform="translate(138.71 -121.02)" style="fill:#484849"/><path d="M414.47,301.86a12.72,12.72,0,0,1,4.5.77,9.82,9.82,0,0,1,3.51,2.22,10.11,10.11,0,0,1,2.29,3.57,13.06,13.06,0,0,1,.82,4.78,10.32,10.32,0,0,1-.07,1.37,2.14,2.14,0,0,1-.26.83,1,1,0,0,1-.51.43,2.43,2.43,0,0,1-.83.12H409.64a7,7,0,0,0,1.89,4.5,5.62,5.62,0,0,0,3.94,1.4,7.25,7.25,0,0,0,2.22-.31,11.2,11.2,0,0,0,1.66-.7l1.34-.69a2.83,2.83,0,0,1,1.27-.31,1.53,1.53,0,0,1,1.34.65l2.15,2.65a11.11,11.11,0,0,1-2.47,2.13,13,13,0,0,1-2.72,1.29,14.91,14.91,0,0,1-2.8.65,20.85,20.85,0,0,1-2.66.18,14,14,0,0,1-4.88-.85,11.38,11.38,0,0,1-4-2.52,11.85,11.85,0,0,1-2.7-4.15,15.59,15.59,0,0,1-1-5.78,13,13,0,0,1,.85-4.71,11.46,11.46,0,0,1,6.28-6.54A12.71,12.71,0,0,1,414.47,301.86Zm.14,5.11a4.48,4.48,0,0,0-3.32,1.21,6.27,6.27,0,0,0-1.57,3.47H419a6.6,6.6,0,0,0-.23-1.72,4.25,4.25,0,0,0-.74-1.49,3.69,3.69,0,0,0-1.35-1.06A4.62,4.62,0,0,0,414.61,307Z" transform="translate(138.71 -121.02)" style="fill:#484849"/><path d="M429.84,327V302.25h4.59a2,2,0,0,1,1.15.31,1.63,1.63,0,0,1,.66.93l.41,1.33a13,13,0,0,1,1.29-1.18,7.71,7.71,0,0,1,1.44-.93,7.89,7.89,0,0,1,3.64-.85,5.81,5.81,0,0,1,3.71,1.16,7.2,7.2,0,0,1,2.24,3.09,7.17,7.17,0,0,1,1.51-1.95,8,8,0,0,1,1.94-1.32,9.58,9.58,0,0,1,2.19-.74,11.33,11.33,0,0,1,2.31-.24,10.31,10.31,0,0,1,3.77.64,7.18,7.18,0,0,1,2.76,1.83,8,8,0,0,1,1.68,3,12.88,12.88,0,0,1,.57,4V327h-7.4V311.27q0-3.84-3.29-3.84a3.38,3.38,0,0,0-2.5,1,3.86,3.86,0,0,0-1,2.85V327h-7.4V311.27a4.2,4.2,0,0,0-.84-3,3.23,3.23,0,0,0-2.46-.86,4.14,4.14,0,0,0-1.89.45,6.89,6.89,0,0,0-1.69,1.22V327Z" transform="translate(138.71 -121.02)" style="fill:#484849"/><path d="M480.12,333.43a2.6,2.6,0,0,1-.81,1.08,2.66,2.66,0,0,1-1.53.35h-5.54l4.78-10-9.89-22.58h6.55a2,2,0,0,1,2,1.28l4.06,10.68a23.52,23.52,0,0,1,.93,3c.16-.51.34-1,.53-1.51s.37-1,.55-1.5l3.67-10.63a1.82,1.82,0,0,1,.75-.91,2.15,2.15,0,0,1,1.21-.37h6Z" transform="translate(138.71 -121.02)" style="fill:#484849"/><path d="M-72.73,268.85c.57-.13,2.7-15,4.34-30.8,2.6-25.24,5.1-49.36,25.06-53.06,22.75-4.21,30,23.08,37.45,51C-2,250.61-.23,259,2.31,260.18c5-3.18,11.07-18.29,19.94-48.48,1.23-4.21,2.41-8.54,3.52-13l-129.66-72.36c-19.36-10.81-34.82-5.44-34.82,17.54v25.15c9.5,13.31,19.12,28.4,28.51,43.14C-91,242.35-73.36,269-72.73,268.85Z" transform="translate(138.71 -121.02)" style="fill-rule:evenodd;fill:url(#linear-gradient)"/><path d="M73.89,225.58,53.11,214q-.87,3.16-1.77,6.26c-12.08,41.11-31,72.92-45.08,76.87a19,19,0,0,1-2.54.57c-28.59,4.36-34.34-41.25-41-60.7-4.77,20.43-1.8,57.37-28.62,63.24-21.17,4.63-44.75-32.38-69.84-71.75l-3-4.68v59.47a.21.21,0,0,0,0,.06l0,0v72.78c0,23,15.46,28.33,34.82,17.53L73.89,274.41c12.55-7,19-15.66,19.57-24.41C92.94,241.26,86.44,232.6,73.89,225.58Z" transform="translate(138.71 -121.02)" style="fill-rule:evenodd;fill:url(#linear-gradient-2)"/></svg>