<svg id="Layer_1" data-name="Layer 1" xmlns="http://www.w3.org/2000/svg" xmlns:xlink="http://www.w3.org/1999/xlink" viewBox="0 0 825 490"><defs><linearGradient id="linear-gradient" x1="-156.85" y1="192.86" x2="251.35" y2="192.86" gradientUnits="userSpaceOnUse"><stop offset="0" stop-color="#2e388d"/><stop offset="1" stop-color="#73cddd"/></linearGradient><linearGradient id="linear-gradient-2" x1="-239.69" y1="289.02" x2="336.5" y2="289.02" gradientUnits="userSpaceOnUse"><stop offset="0" stop-color="#66308a"/><stop offset="0.15" stop-color="#722f89"/><stop offset="0.41" stop-color="#912c85"/><stop offset="0.75" stop-color="#c3277e"/><stop offset="1" stop-color="#ec2379"/></linearGradient></defs><title>wiyata</title><text transform="translate(321.09 266.31)" style="font-size:118.36106872558594px;fill:#48484a;font-family:Lato-Black, Lato;font-weight:800">WI<tspan x="164.64" y="0" style="letter-spacing:-0.09999856901800214em">Y</tspan><tspan x="232.93" y="0" style="letter-spacing:-0.07998235380037234em">AT</tspan><tspan x="372.13" y="0" style="letter-spacing:-0.000008250707014686645em">A</tspan></text><text transform="translate(458.55 317.91)" style="font-size:45.2142219543457px;fill:#48484a;font-family:Lato-Black, Lato;font-weight:800">acade<tspan x="121.53" y="0" style="letter-spacing:-0.019978676475116888em">m</tspan><tspan x="159.56" y="0">y</tspan></text><path d="M106.91,262.84c.54-.11,2.56-14.19,4.11-29.16,2.47-23.89,4.83-46.74,23.73-50.24,21.54-4,28.42,21.86,35.46,48.3,3.68,13.83,5.35,21.79,7.75,22.9,4.76-3,10.48-17.32,18.88-45.91,1.17-4,2.29-8.08,3.34-12.27L77.41,128c-18.34-10.24-33-5.15-33,16.6v23.82c9,12.6,18.1,26.89,27,40.85C89.62,237.76,106.31,263,106.91,262.84Z" style="fill-rule:evenodd;fill:url(#linear-gradient)"/><path d="M245.74,221.88l-19.67-11q-.82,3-1.68,5.93c-11.44,38.93-29.35,69-42.68,72.79a20.39,20.39,0,0,1-2.41.54c-27.07,4.13-32.51-39.06-38.81-57.48C136,252,138.79,287,113.39,292.56c-20,4.38-42.37-30.65-66.13-67.94l-2.82-4.43V276.5l0,.06,0,0v68.91c0,21.75,14.63,26.83,33,16.6l168.33-93.93c11.89-6.64,18-14.84,18.53-23.12C263.78,236.73,257.63,228.52,245.74,221.88Z" style="fill-rule:evenodd;fill:url(#linear-gradient-2)"/></svg>